%
M48
M72
T01C0.0236
T02C0.0320
T03C0.0394
T04C0.0400
T05C0.1260
%
T01
X15730Y4204
X16480Y3579
X17105Y4204
X17105Y6329
X15980Y6329
X15605Y15829
X16855Y16579
X11105Y16704
X8730Y16954
T02
X6730Y17454
X5730Y17454
X4730Y17454
X4605Y15204
X3605Y15204
X3730Y13329
X4605Y12079
X5730Y11829
X6730Y11829
X7730Y11829
X8730Y11829
X9730Y11829
X10730Y11829
X11730Y11829
X12730Y11829
X13730Y11829
X14805Y12454
X13355Y13829
X12148Y15246
X12855Y15954
X13562Y16661
X14805Y16454
X16105Y17204
X16855Y15704
X16855Y14704
X16855Y13704
X16855Y12704
X16855Y11704
X16855Y10704
X17230Y8579
X18230Y8579
X19230Y8579
X19855Y10704
X19855Y11704
X19855Y12704
X19855Y13704
X19855Y14704
X19855Y15704
X20105Y17204
X14855Y9454
X13730Y8829
X12730Y8829
X11730Y8829
X10730Y8829
X9730Y8829
X8730Y8829
X7730Y8829
X6730Y8829
X5730Y8829
X4605Y8079
X3230Y8704
X3355Y6704
X1855Y5579
X1855Y4579
X1855Y3579
X3355Y4704
X3730Y2954
X5355Y4704
X6605Y3704
X7730Y3704
X7730Y2954
X8730Y3704
X9855Y3704
X10980Y3704
X12105Y3704
X13230Y3704
X14355Y4079
X14855Y5454
X13230Y7704
X12105Y7704
X10980Y7704
X9855Y7704
X8730Y7704
X7730Y7704
X6605Y7704
X5355Y6704
X3230Y10704
X5730Y13329
X5605Y15204
X7655Y13454
X9555Y13454
X11355Y13829
X17230Y5579
X18230Y5579
X19230Y5579
X18355Y4079
X17230Y2329
X17355Y1204
X14230Y2329
X13355Y1204
T03
X9105Y5579
X6355Y5579
X13605Y10579
X14855Y10579
X1855Y15454
T04
X1855Y14454
X1855Y13454
X1855Y12454
X1855Y11454
X1605Y8579
X1605Y7579
X1605Y6579
X4480Y1454
X5480Y1454
X6480Y1454
X7480Y1454
X9355Y1454
X10355Y1454
X11355Y1454
X12355Y1454
X8730Y15954
X6730Y15954
X3805Y16454
X1805Y16454
X4730Y18954
X5730Y18954
X6730Y18954
X7730Y18954
X8730Y18954
X9730Y18954
X11105Y19579
X12605Y18954
X13605Y18954
X14605Y18954
X15605Y18954
X11105Y17579
T05
X1855Y1704
X1855Y19204
X19355Y19204
X19355Y1704
M30
