G75*
G70*
%OFA0B0*%
%FSLAX24Y24*%
%IPPOS*%
%LPD*%
%AMOC8*
5,1,8,0,0,1.08239X$1,22.5*
%
%ADD10C,0.0000*%
%ADD11C,0.0520*%
%ADD12C,0.0520*%
%ADD13OC8,0.0600*%
%ADD14OC8,0.0520*%
%ADD15OC8,0.0630*%
%ADD16C,0.0600*%
%ADD17C,0.0160*%
%ADD18C,0.0396*%
%ADD19C,0.0320*%
%ADD20R,0.0591X0.0591*%
%ADD21C,0.0500*%
%ADD22R,0.0396X0.0396*%
%ADD23OC8,0.0660*%
D10*
X000105Y000454D02*
X000605Y000454D01*
X000605Y020450D01*
X020600Y020450D01*
X020600Y000454D01*
X000605Y000454D01*
X001225Y001704D02*
X001227Y001754D01*
X001233Y001804D01*
X001243Y001853D01*
X001257Y001901D01*
X001274Y001948D01*
X001295Y001993D01*
X001320Y002037D01*
X001348Y002078D01*
X001380Y002117D01*
X001414Y002154D01*
X001451Y002188D01*
X001491Y002218D01*
X001533Y002245D01*
X001577Y002269D01*
X001623Y002290D01*
X001670Y002306D01*
X001718Y002319D01*
X001768Y002328D01*
X001817Y002333D01*
X001868Y002334D01*
X001918Y002331D01*
X001967Y002324D01*
X002016Y002313D01*
X002064Y002298D01*
X002110Y002280D01*
X002155Y002258D01*
X002198Y002232D01*
X002239Y002203D01*
X002278Y002171D01*
X002314Y002136D01*
X002346Y002098D01*
X002376Y002058D01*
X002403Y002015D01*
X002426Y001971D01*
X002445Y001925D01*
X002461Y001877D01*
X002473Y001828D01*
X002481Y001779D01*
X002485Y001729D01*
X002485Y001679D01*
X002481Y001629D01*
X002473Y001580D01*
X002461Y001531D01*
X002445Y001483D01*
X002426Y001437D01*
X002403Y001393D01*
X002376Y001350D01*
X002346Y001310D01*
X002314Y001272D01*
X002278Y001237D01*
X002239Y001205D01*
X002198Y001176D01*
X002155Y001150D01*
X002110Y001128D01*
X002064Y001110D01*
X002016Y001095D01*
X001967Y001084D01*
X001918Y001077D01*
X001868Y001074D01*
X001817Y001075D01*
X001768Y001080D01*
X001718Y001089D01*
X001670Y001102D01*
X001623Y001118D01*
X001577Y001139D01*
X001533Y001163D01*
X001491Y001190D01*
X001451Y001220D01*
X001414Y001254D01*
X001380Y001291D01*
X001348Y001330D01*
X001320Y001371D01*
X001295Y001415D01*
X001274Y001460D01*
X001257Y001507D01*
X001243Y001555D01*
X001233Y001604D01*
X001227Y001654D01*
X001225Y001704D01*
X001225Y019204D02*
X001227Y019254D01*
X001233Y019304D01*
X001243Y019353D01*
X001257Y019401D01*
X001274Y019448D01*
X001295Y019493D01*
X001320Y019537D01*
X001348Y019578D01*
X001380Y019617D01*
X001414Y019654D01*
X001451Y019688D01*
X001491Y019718D01*
X001533Y019745D01*
X001577Y019769D01*
X001623Y019790D01*
X001670Y019806D01*
X001718Y019819D01*
X001768Y019828D01*
X001817Y019833D01*
X001868Y019834D01*
X001918Y019831D01*
X001967Y019824D01*
X002016Y019813D01*
X002064Y019798D01*
X002110Y019780D01*
X002155Y019758D01*
X002198Y019732D01*
X002239Y019703D01*
X002278Y019671D01*
X002314Y019636D01*
X002346Y019598D01*
X002376Y019558D01*
X002403Y019515D01*
X002426Y019471D01*
X002445Y019425D01*
X002461Y019377D01*
X002473Y019328D01*
X002481Y019279D01*
X002485Y019229D01*
X002485Y019179D01*
X002481Y019129D01*
X002473Y019080D01*
X002461Y019031D01*
X002445Y018983D01*
X002426Y018937D01*
X002403Y018893D01*
X002376Y018850D01*
X002346Y018810D01*
X002314Y018772D01*
X002278Y018737D01*
X002239Y018705D01*
X002198Y018676D01*
X002155Y018650D01*
X002110Y018628D01*
X002064Y018610D01*
X002016Y018595D01*
X001967Y018584D01*
X001918Y018577D01*
X001868Y018574D01*
X001817Y018575D01*
X001768Y018580D01*
X001718Y018589D01*
X001670Y018602D01*
X001623Y018618D01*
X001577Y018639D01*
X001533Y018663D01*
X001491Y018690D01*
X001451Y018720D01*
X001414Y018754D01*
X001380Y018791D01*
X001348Y018830D01*
X001320Y018871D01*
X001295Y018915D01*
X001274Y018960D01*
X001257Y019007D01*
X001243Y019055D01*
X001233Y019104D01*
X001227Y019154D01*
X001225Y019204D01*
X018725Y019204D02*
X018727Y019254D01*
X018733Y019304D01*
X018743Y019353D01*
X018757Y019401D01*
X018774Y019448D01*
X018795Y019493D01*
X018820Y019537D01*
X018848Y019578D01*
X018880Y019617D01*
X018914Y019654D01*
X018951Y019688D01*
X018991Y019718D01*
X019033Y019745D01*
X019077Y019769D01*
X019123Y019790D01*
X019170Y019806D01*
X019218Y019819D01*
X019268Y019828D01*
X019317Y019833D01*
X019368Y019834D01*
X019418Y019831D01*
X019467Y019824D01*
X019516Y019813D01*
X019564Y019798D01*
X019610Y019780D01*
X019655Y019758D01*
X019698Y019732D01*
X019739Y019703D01*
X019778Y019671D01*
X019814Y019636D01*
X019846Y019598D01*
X019876Y019558D01*
X019903Y019515D01*
X019926Y019471D01*
X019945Y019425D01*
X019961Y019377D01*
X019973Y019328D01*
X019981Y019279D01*
X019985Y019229D01*
X019985Y019179D01*
X019981Y019129D01*
X019973Y019080D01*
X019961Y019031D01*
X019945Y018983D01*
X019926Y018937D01*
X019903Y018893D01*
X019876Y018850D01*
X019846Y018810D01*
X019814Y018772D01*
X019778Y018737D01*
X019739Y018705D01*
X019698Y018676D01*
X019655Y018650D01*
X019610Y018628D01*
X019564Y018610D01*
X019516Y018595D01*
X019467Y018584D01*
X019418Y018577D01*
X019368Y018574D01*
X019317Y018575D01*
X019268Y018580D01*
X019218Y018589D01*
X019170Y018602D01*
X019123Y018618D01*
X019077Y018639D01*
X019033Y018663D01*
X018991Y018690D01*
X018951Y018720D01*
X018914Y018754D01*
X018880Y018791D01*
X018848Y018830D01*
X018820Y018871D01*
X018795Y018915D01*
X018774Y018960D01*
X018757Y019007D01*
X018743Y019055D01*
X018733Y019104D01*
X018727Y019154D01*
X018725Y019204D01*
X018725Y001704D02*
X018727Y001754D01*
X018733Y001804D01*
X018743Y001853D01*
X018757Y001901D01*
X018774Y001948D01*
X018795Y001993D01*
X018820Y002037D01*
X018848Y002078D01*
X018880Y002117D01*
X018914Y002154D01*
X018951Y002188D01*
X018991Y002218D01*
X019033Y002245D01*
X019077Y002269D01*
X019123Y002290D01*
X019170Y002306D01*
X019218Y002319D01*
X019268Y002328D01*
X019317Y002333D01*
X019368Y002334D01*
X019418Y002331D01*
X019467Y002324D01*
X019516Y002313D01*
X019564Y002298D01*
X019610Y002280D01*
X019655Y002258D01*
X019698Y002232D01*
X019739Y002203D01*
X019778Y002171D01*
X019814Y002136D01*
X019846Y002098D01*
X019876Y002058D01*
X019903Y002015D01*
X019926Y001971D01*
X019945Y001925D01*
X019961Y001877D01*
X019973Y001828D01*
X019981Y001779D01*
X019985Y001729D01*
X019985Y001679D01*
X019981Y001629D01*
X019973Y001580D01*
X019961Y001531D01*
X019945Y001483D01*
X019926Y001437D01*
X019903Y001393D01*
X019876Y001350D01*
X019846Y001310D01*
X019814Y001272D01*
X019778Y001237D01*
X019739Y001205D01*
X019698Y001176D01*
X019655Y001150D01*
X019610Y001128D01*
X019564Y001110D01*
X019516Y001095D01*
X019467Y001084D01*
X019418Y001077D01*
X019368Y001074D01*
X019317Y001075D01*
X019268Y001080D01*
X019218Y001089D01*
X019170Y001102D01*
X019123Y001118D01*
X019077Y001139D01*
X019033Y001163D01*
X018991Y001190D01*
X018951Y001220D01*
X018914Y001254D01*
X018880Y001291D01*
X018848Y001330D01*
X018820Y001371D01*
X018795Y001415D01*
X018774Y001460D01*
X018757Y001507D01*
X018743Y001555D01*
X018733Y001604D01*
X018727Y001654D01*
X018725Y001704D01*
D11*
X017490Y002329D02*
X016970Y002329D01*
X014490Y002329D02*
X013970Y002329D01*
X017230Y005059D02*
X017230Y005579D01*
X018230Y005579D02*
X018230Y005059D01*
X019230Y005059D02*
X019230Y005579D01*
X019230Y008579D02*
X019230Y009099D01*
X018230Y009099D02*
X018230Y008579D01*
X017230Y008579D02*
X017230Y009099D01*
X017115Y010704D02*
X016595Y010704D01*
X016595Y011704D02*
X017115Y011704D01*
X017115Y012704D02*
X016595Y012704D01*
X016595Y013704D02*
X017115Y013704D01*
X017115Y014704D02*
X016595Y014704D01*
X016595Y015704D02*
X017115Y015704D01*
X019595Y015704D02*
X020115Y015704D01*
X020115Y014704D02*
X019595Y014704D01*
X019595Y013704D02*
X020115Y013704D01*
X020115Y012704D02*
X019595Y012704D01*
X019595Y011704D02*
X020115Y011704D01*
X020115Y010704D02*
X019595Y010704D01*
X013730Y011569D02*
X013730Y012089D01*
X012730Y012089D02*
X012730Y011569D01*
X011730Y011569D02*
X011730Y012089D01*
X010730Y012089D02*
X010730Y011569D01*
X009730Y011569D02*
X009730Y012089D01*
X008730Y012089D02*
X008730Y011569D01*
X007730Y011569D02*
X007730Y012089D01*
X006730Y012089D02*
X006730Y011569D01*
X005730Y011569D02*
X005730Y012089D01*
X005605Y014944D02*
X005605Y015464D01*
X004605Y015464D02*
X004605Y014944D01*
X003605Y014944D02*
X003605Y015464D01*
X004730Y017194D02*
X004730Y017714D01*
X005730Y017714D02*
X005730Y017194D01*
X006730Y017194D02*
X006730Y017714D01*
X011964Y015430D02*
X012331Y015063D01*
X013039Y015770D02*
X012671Y016137D01*
X013378Y016844D02*
X013746Y016477D01*
X013730Y009089D02*
X013730Y008569D01*
X012730Y008569D02*
X012730Y009089D01*
X011730Y009089D02*
X011730Y008569D01*
X010730Y008569D02*
X010730Y009089D01*
X009730Y009089D02*
X009730Y008569D01*
X008730Y008569D02*
X008730Y009089D01*
X007730Y009089D02*
X007730Y008569D01*
X006730Y008569D02*
X006730Y009089D01*
X005730Y009089D02*
X005730Y008569D01*
X007470Y002954D02*
X007990Y002954D01*
X003990Y002954D02*
X003470Y002954D01*
D12*
X007655Y013454D03*
X009555Y013454D03*
D13*
X008730Y015954D03*
X006730Y015954D03*
X003855Y016454D03*
X001855Y016454D03*
X011105Y017579D03*
X011105Y019579D03*
D14*
X014805Y016454D03*
X016105Y017204D03*
X020105Y017204D03*
X014805Y012454D03*
X014855Y009454D03*
X013230Y007704D03*
X012105Y007704D03*
X010980Y007704D03*
X009855Y007704D03*
X008730Y007704D03*
X007730Y007704D03*
X006605Y007704D03*
X004605Y008079D03*
X001855Y005579D03*
X001855Y004579D03*
X001855Y003579D03*
X006605Y003704D03*
X007730Y003704D03*
X008730Y003704D03*
X009855Y003704D03*
X010980Y003704D03*
X012105Y003704D03*
X013230Y003704D03*
X014355Y004079D03*
X014855Y005454D03*
X018355Y004079D03*
X017355Y001204D03*
X013355Y001204D03*
X004605Y012079D03*
D15*
X003730Y013329D03*
X005730Y013329D03*
X003230Y010704D03*
X003230Y008704D03*
X003355Y006704D03*
X005355Y006704D03*
X005355Y004704D03*
X003355Y004704D03*
X011355Y013829D03*
X013355Y013829D03*
D16*
X013605Y018654D02*
X013605Y019254D01*
X014605Y019254D02*
X014605Y018654D01*
X015605Y018654D02*
X015605Y019254D01*
X012605Y019254D02*
X012605Y018654D01*
X009730Y018654D02*
X009730Y019254D01*
X008730Y019254D02*
X008730Y018654D01*
X007730Y018654D02*
X007730Y019254D01*
X006730Y019254D02*
X006730Y018654D01*
X005730Y018654D02*
X005730Y019254D01*
X004730Y019254D02*
X004730Y018654D01*
X002155Y014454D02*
X001555Y014454D01*
X001555Y013454D02*
X002155Y013454D01*
X002155Y012454D02*
X001555Y012454D01*
X001555Y011454D02*
X002155Y011454D01*
X001905Y008579D02*
X001305Y008579D01*
X001305Y007579D02*
X001905Y007579D01*
X001905Y006579D02*
X001305Y006579D01*
X004480Y001754D02*
X004480Y001154D01*
X005480Y001154D02*
X005480Y001754D01*
X006480Y001754D02*
X006480Y001154D01*
X007480Y001154D02*
X007480Y001754D01*
X009355Y001754D02*
X009355Y001154D01*
X010355Y001154D02*
X010355Y001754D01*
X011355Y001754D02*
X011355Y001154D01*
X012355Y001154D02*
X012355Y001754D01*
D17*
X012355Y001454D02*
X012355Y002329D01*
X014230Y002329D01*
X013502Y003354D02*
X013670Y003521D01*
X013670Y003703D01*
X013230Y003703D01*
X013230Y003704D01*
X013229Y003704D01*
X013229Y003703D01*
X012790Y003703D01*
X012790Y003521D01*
X012958Y003354D01*
X012377Y003354D01*
X012545Y003521D01*
X012545Y003703D01*
X012105Y003703D01*
X012105Y003704D01*
X012104Y003704D01*
X012104Y003703D01*
X011665Y003703D01*
X011665Y003521D01*
X011833Y003354D01*
X011252Y003354D01*
X011420Y003521D01*
X011420Y003703D01*
X010980Y003703D01*
X010980Y003704D01*
X010979Y003704D01*
X010979Y003703D01*
X010540Y003703D01*
X010540Y003521D01*
X010708Y003354D01*
X010127Y003354D01*
X010295Y003521D01*
X010295Y003703D01*
X009855Y003703D01*
X009855Y003704D01*
X009854Y003704D01*
X009854Y003703D01*
X009415Y003703D01*
X009415Y003521D01*
X009583Y003354D01*
X009087Y003354D01*
X009230Y003496D01*
X009230Y003911D01*
X008937Y004204D01*
X008523Y004204D01*
X008230Y003911D01*
X008230Y003496D01*
X008230Y003911D01*
X007937Y004204D01*
X007523Y004204D01*
X007230Y003911D01*
X007230Y003496D01*
X007301Y003425D01*
X007186Y003377D01*
X007163Y003354D01*
X006877Y003354D01*
X007045Y003521D01*
X007045Y003703D01*
X006605Y003703D01*
X006605Y003704D01*
X006604Y003704D01*
X006604Y003703D01*
X006165Y003703D01*
X006165Y003521D01*
X006352Y003334D01*
X006253Y003293D01*
X006141Y003180D01*
X006080Y003033D01*
X006080Y002117D01*
X006022Y002059D01*
X005980Y001957D01*
X005937Y002059D01*
X005786Y002211D01*
X005587Y002294D01*
X005372Y002294D01*
X005174Y002211D01*
X005022Y002059D01*
X004980Y001957D01*
X004937Y002059D01*
X004786Y002211D01*
X004587Y002294D01*
X004372Y002294D01*
X004174Y002211D01*
X004022Y002059D01*
X003940Y001861D01*
X003940Y001046D01*
X003986Y000934D01*
X003505Y000934D01*
X003620Y001185D01*
X003695Y001704D01*
X003620Y002222D01*
X003514Y002454D01*
X004089Y002454D01*
X004273Y002530D01*
X004414Y002670D01*
X004490Y002854D01*
X004490Y003053D01*
X004414Y003237D01*
X004273Y003377D01*
X004089Y003454D01*
X003590Y003454D01*
X003005Y003713D01*
X003005Y004354D01*
X003150Y004209D01*
X003354Y004209D01*
X003354Y004703D01*
X003355Y004703D01*
X003355Y004209D01*
X003560Y004209D01*
X003850Y004499D01*
X003850Y004703D01*
X003355Y004703D01*
X003355Y004704D01*
X003354Y004704D01*
X003354Y005199D01*
X003150Y005199D01*
X003005Y005053D01*
X003005Y005658D01*
X002944Y005805D01*
X002831Y005918D01*
X002684Y005979D01*
X002525Y005979D01*
X002255Y005979D01*
X002255Y006165D01*
X002362Y006273D01*
X002445Y006471D01*
X002445Y006686D01*
X002362Y006884D01*
X002211Y007036D01*
X002109Y007079D01*
X002211Y007121D01*
X002362Y007273D01*
X002445Y007471D01*
X002445Y007686D01*
X002362Y007884D01*
X002211Y008036D01*
X002109Y008079D01*
X002211Y008121D01*
X002362Y008273D01*
X002445Y008471D01*
X002445Y008686D01*
X002362Y008884D01*
X002211Y009036D01*
X002012Y009119D01*
X001880Y009119D01*
X001880Y010914D01*
X002262Y010914D01*
X002461Y010996D01*
X002612Y011148D01*
X002695Y011346D01*
X002695Y011561D01*
X002612Y011759D01*
X002461Y011911D01*
X002359Y011954D01*
X002461Y011996D01*
X002518Y012054D01*
X003059Y012054D01*
X003206Y012114D01*
X003319Y012227D01*
X003380Y012374D01*
X003380Y012533D01*
X003380Y012894D01*
X003500Y012774D01*
X003960Y012774D01*
X004285Y013099D01*
X004285Y013558D01*
X003960Y013884D01*
X003500Y013884D01*
X003380Y013763D01*
X003380Y014413D01*
X003438Y014471D01*
X003505Y014444D01*
X003704Y014444D01*
X003888Y014520D01*
X004029Y014660D01*
X004105Y014844D01*
X004181Y014660D01*
X004321Y014520D01*
X004505Y014444D01*
X004704Y014444D01*
X004888Y014520D01*
X005029Y014660D01*
X005105Y014844D01*
X005181Y014660D01*
X005321Y014520D01*
X005505Y014444D01*
X005704Y014444D01*
X005888Y014520D01*
X006029Y014660D01*
X006105Y014844D01*
X006105Y015563D01*
X006029Y015747D01*
X006005Y015771D01*
X006005Y016533D01*
X005944Y016680D01*
X005901Y016723D01*
X006013Y016770D01*
X006154Y016910D01*
X006230Y017094D01*
X006306Y016910D01*
X006330Y016886D01*
X006330Y016317D01*
X006190Y016177D01*
X006190Y015730D01*
X006506Y015414D01*
X006953Y015414D01*
X007160Y015620D01*
X007160Y014524D01*
X006793Y014524D01*
X006666Y014524D01*
X006548Y014475D01*
X006458Y014385D01*
X006410Y014267D01*
X006410Y013024D01*
X006209Y013024D01*
X006285Y013099D01*
X006285Y013558D01*
X005960Y013884D01*
X005500Y013884D01*
X005175Y013558D01*
X005175Y013099D01*
X005250Y013024D01*
X005166Y013024D01*
X005048Y012975D01*
X004958Y012885D01*
X004652Y012579D01*
X004398Y012579D01*
X004105Y012286D01*
X004105Y011871D01*
X004398Y011579D01*
X004812Y011579D01*
X005105Y011871D01*
X005105Y012126D01*
X005274Y012296D01*
X005230Y012188D01*
X005230Y011469D01*
X005306Y011285D01*
X005410Y011181D01*
X005410Y010765D01*
X005458Y010647D01*
X005548Y010557D01*
X005666Y010509D01*
X005793Y010509D01*
X008168Y010509D01*
X008286Y010557D01*
X008376Y010647D01*
X008501Y010772D01*
X008550Y010890D01*
X008550Y011017D01*
X008550Y011102D01*
X008630Y011069D01*
X008829Y011069D01*
X009013Y011145D01*
X009154Y011285D01*
X009230Y011469D01*
X009230Y012188D01*
X009154Y012372D01*
X009050Y012476D01*
X009050Y012496D01*
X009507Y012954D01*
X009654Y012954D01*
X009838Y013030D01*
X009910Y013101D01*
X009910Y012491D01*
X009899Y012496D01*
X009833Y012518D01*
X009764Y012529D01*
X009730Y012529D01*
X009730Y011829D01*
X009729Y011829D01*
X009729Y011828D01*
X009290Y011828D01*
X009290Y011534D01*
X009301Y011465D01*
X009322Y011400D01*
X009353Y011338D01*
X009394Y011282D01*
X009443Y011233D01*
X009499Y011192D01*
X009561Y011161D01*
X009627Y011139D01*
X009695Y011129D01*
X009729Y011129D01*
X009729Y011828D01*
X009730Y011828D01*
X009730Y011129D01*
X009764Y011129D01*
X009833Y011139D01*
X009899Y011161D01*
X009910Y011166D01*
X009910Y011017D01*
X009910Y010890D01*
X009958Y010772D01*
X010048Y010682D01*
X010166Y010634D01*
X011541Y010634D01*
X011668Y010634D01*
X011786Y010682D01*
X011911Y010807D01*
X012001Y010897D01*
X012050Y011015D01*
X012050Y011181D01*
X012154Y011285D01*
X012230Y011469D01*
X012306Y011285D01*
X012446Y011145D01*
X012630Y011069D01*
X012829Y011069D01*
X013013Y011145D01*
X013154Y011285D01*
X013230Y011469D01*
X013306Y011285D01*
X013446Y011145D01*
X013521Y011114D01*
X013262Y011114D01*
X013173Y011077D01*
X013106Y011010D01*
X013069Y010922D01*
X013069Y010236D01*
X013106Y010147D01*
X013173Y010080D01*
X013262Y010043D01*
X013948Y010043D01*
X014036Y010080D01*
X014045Y010089D01*
X014415Y010089D01*
X014423Y010080D01*
X014512Y010043D01*
X015035Y010043D01*
X015035Y009954D01*
X014648Y009954D01*
X014355Y009661D01*
X014355Y009246D01*
X014648Y008954D01*
X015035Y008954D01*
X015035Y008711D01*
X014347Y008024D01*
X013617Y008024D01*
X013530Y008110D01*
X013630Y008069D01*
X013829Y008069D01*
X014013Y008145D01*
X014154Y008285D01*
X014230Y008469D01*
X014230Y009188D01*
X014154Y009372D01*
X014013Y009512D01*
X013829Y009589D01*
X013630Y009589D01*
X013446Y009512D01*
X013306Y009372D01*
X013230Y009188D01*
X013230Y008469D01*
X013306Y008285D01*
X013388Y008204D01*
X013072Y008204D01*
X013154Y008285D01*
X013230Y008469D01*
X013230Y009188D01*
X013154Y009372D01*
X013013Y009512D01*
X012829Y009589D01*
X012630Y009589D01*
X012446Y009512D01*
X012306Y009372D01*
X012230Y009188D01*
X012230Y008781D01*
X012230Y008781D01*
X012230Y009188D01*
X012154Y009372D01*
X012013Y009512D01*
X011829Y009589D01*
X011630Y009589D01*
X011446Y009512D01*
X011306Y009372D01*
X011230Y009188D01*
X011230Y008781D01*
X011230Y008781D01*
X011230Y009188D01*
X011154Y009372D01*
X011013Y009512D01*
X010829Y009589D01*
X010630Y009589D01*
X010446Y009512D01*
X010306Y009372D01*
X010230Y009188D01*
X010230Y008469D01*
X010306Y008285D01*
X010446Y008145D01*
X010630Y008069D01*
X010638Y008069D01*
X010480Y007911D01*
X010480Y007496D01*
X010660Y007316D01*
X010660Y006899D01*
X010563Y006899D01*
X010315Y007456D01*
X010355Y007496D01*
X010355Y007911D01*
X010067Y008199D01*
X010154Y008285D01*
X010230Y008469D01*
X010230Y009188D01*
X010154Y009372D01*
X010013Y009512D01*
X009829Y009589D01*
X009630Y009589D01*
X009446Y009512D01*
X009306Y009372D01*
X009230Y009188D01*
X009230Y008728D01*
X009230Y008728D01*
X009230Y009188D01*
X009154Y009372D01*
X009013Y009512D01*
X008829Y009589D01*
X008630Y009589D01*
X008446Y009512D01*
X008306Y009372D01*
X008230Y009188D01*
X008230Y008469D01*
X008257Y008404D01*
X008215Y008434D01*
X008230Y008469D01*
X008230Y009188D01*
X008154Y009372D01*
X008013Y009512D01*
X007829Y009589D01*
X007630Y009589D01*
X007446Y009512D01*
X007306Y009372D01*
X007230Y009188D01*
X007230Y008469D01*
X007292Y008318D01*
X007284Y008320D01*
X007195Y008385D01*
X007230Y008469D01*
X007230Y009188D01*
X007154Y009372D01*
X007013Y009512D01*
X006829Y009589D01*
X006630Y009589D01*
X006446Y009512D01*
X006306Y009372D01*
X006230Y009188D01*
X006230Y008469D01*
X006264Y008386D01*
X006245Y008401D01*
X006224Y008455D01*
X006230Y008469D01*
X006230Y009188D01*
X006154Y009372D01*
X006013Y009512D01*
X005829Y009589D01*
X005630Y009589D01*
X005446Y009512D01*
X005306Y009372D01*
X005230Y009188D01*
X005230Y008469D01*
X005306Y008285D01*
X005446Y008145D01*
X005630Y008069D01*
X005689Y008069D01*
X005690Y008066D01*
X005706Y008026D01*
X005720Y008011D01*
X005730Y007993D01*
X005764Y007966D01*
X005795Y007934D01*
X005814Y007927D01*
X006105Y007694D01*
X006105Y007496D01*
X006285Y007316D01*
X006285Y006265D01*
X006333Y006147D01*
X006367Y006114D01*
X006012Y006114D01*
X005923Y006077D01*
X005856Y006010D01*
X005819Y005922D01*
X005819Y005236D01*
X005856Y005147D01*
X005923Y005080D01*
X006012Y005043D01*
X006698Y005043D01*
X006786Y005080D01*
X006795Y005089D01*
X008665Y005089D01*
X008673Y005080D01*
X008762Y005043D01*
X009448Y005043D01*
X009536Y005080D01*
X009603Y005147D01*
X009640Y005236D01*
X009640Y005922D01*
X009604Y006009D01*
X015168Y006009D01*
X015286Y006057D01*
X015376Y006147D01*
X015376Y006147D01*
X016187Y006958D01*
X016160Y006892D01*
X016160Y003878D01*
X016108Y003827D01*
X016042Y003666D01*
X016042Y003491D01*
X016099Y003354D01*
X013502Y003354D01*
X013614Y003466D02*
X016052Y003466D01*
X016042Y003624D02*
X014608Y003624D01*
X014562Y003579D02*
X014855Y003871D01*
X014855Y004286D01*
X014562Y004579D01*
X014148Y004579D01*
X013855Y004286D01*
X013855Y003871D01*
X014148Y003579D01*
X014562Y003579D01*
X014766Y003783D02*
X016090Y003783D01*
X016160Y003941D02*
X014855Y003941D01*
X014855Y004100D02*
X016160Y004100D01*
X016160Y004259D02*
X014855Y004259D01*
X014723Y004417D02*
X016160Y004417D01*
X016160Y004576D02*
X014565Y004576D01*
X014648Y004954D02*
X015062Y004954D01*
X015355Y005246D01*
X015355Y005661D01*
X015062Y005954D01*
X014648Y005954D01*
X014355Y005661D01*
X014355Y005246D01*
X014648Y004954D01*
X014550Y005051D02*
X009467Y005051D01*
X009629Y005210D02*
X014391Y005210D01*
X014355Y005368D02*
X009640Y005368D01*
X009640Y005527D02*
X014355Y005527D01*
X014380Y005685D02*
X009640Y005685D01*
X009640Y005844D02*
X014538Y005844D01*
X015171Y005844D02*
X016160Y005844D01*
X016160Y005685D02*
X015330Y005685D01*
X015355Y005527D02*
X016160Y005527D01*
X016160Y005368D02*
X015355Y005368D01*
X015318Y005210D02*
X016160Y005210D01*
X016160Y005051D02*
X015160Y005051D01*
X014145Y004576D02*
X005910Y004576D01*
X005910Y004474D02*
X005585Y004149D01*
X005125Y004149D01*
X004800Y004474D01*
X004800Y004933D01*
X005125Y005259D01*
X005585Y005259D01*
X005910Y004933D01*
X005910Y004474D01*
X005853Y004417D02*
X013986Y004417D01*
X013855Y004259D02*
X005695Y004259D01*
X005910Y004734D02*
X016160Y004734D01*
X016160Y004893D02*
X005910Y004893D01*
X005992Y005051D02*
X005792Y005051D01*
X005830Y005210D02*
X005633Y005210D01*
X005819Y005368D02*
X003005Y005368D01*
X003005Y005210D02*
X005076Y005210D01*
X004918Y005051D02*
X003707Y005051D01*
X003850Y004909D02*
X003560Y005199D01*
X003355Y005199D01*
X003355Y004704D01*
X003850Y004704D01*
X003850Y004909D01*
X003850Y004893D02*
X004800Y004893D01*
X004800Y004734D02*
X003850Y004734D01*
X003850Y004576D02*
X004800Y004576D01*
X004856Y004417D02*
X003768Y004417D01*
X003610Y004259D02*
X005015Y004259D01*
X004343Y003307D02*
X006289Y003307D01*
X006220Y003466D02*
X003562Y003466D01*
X003205Y003624D02*
X006165Y003624D01*
X006165Y003704D02*
X006604Y003704D01*
X006604Y004144D01*
X006422Y004144D01*
X006165Y003886D01*
X006165Y003704D01*
X006165Y003783D02*
X003005Y003783D01*
X003005Y003941D02*
X006220Y003941D01*
X006379Y004100D02*
X003005Y004100D01*
X003005Y004259D02*
X003100Y004259D01*
X003354Y004259D02*
X003355Y004259D01*
X003354Y004417D02*
X003355Y004417D01*
X003354Y004576D02*
X003355Y004576D01*
X003354Y004734D02*
X003355Y004734D01*
X003354Y004893D02*
X003355Y004893D01*
X003354Y005051D02*
X003355Y005051D01*
X003005Y005527D02*
X005819Y005527D01*
X005819Y005685D02*
X002993Y005685D01*
X002905Y005844D02*
X005819Y005844D01*
X005853Y006003D02*
X002255Y006003D01*
X002255Y006161D02*
X005112Y006161D01*
X005125Y006149D02*
X005585Y006149D01*
X005910Y006474D01*
X005910Y006933D01*
X005585Y007259D01*
X005125Y007259D01*
X004800Y006933D01*
X004800Y006474D01*
X005125Y006149D01*
X004954Y006320D02*
X003671Y006320D01*
X003560Y006209D02*
X003850Y006499D01*
X003850Y006703D01*
X003355Y006703D01*
X003355Y006209D01*
X003560Y006209D01*
X003354Y006209D02*
X003354Y006703D01*
X002860Y006703D01*
X002860Y006499D01*
X003150Y006209D01*
X003354Y006209D01*
X003354Y006320D02*
X003355Y006320D01*
X003354Y006478D02*
X003355Y006478D01*
X003354Y006637D02*
X003355Y006637D01*
X003354Y006703D02*
X003355Y006703D01*
X003355Y006704D01*
X003354Y006704D01*
X003354Y006703D01*
X003354Y006704D02*
X002860Y006704D01*
X002860Y006909D01*
X003150Y007199D01*
X003354Y007199D01*
X003354Y006704D01*
X003355Y006704D02*
X003355Y007199D01*
X003560Y007199D01*
X003850Y006909D01*
X003850Y006704D01*
X003355Y006704D01*
X003354Y006795D02*
X003355Y006795D01*
X003354Y006954D02*
X003355Y006954D01*
X003354Y007112D02*
X003355Y007112D01*
X003064Y007112D02*
X002190Y007112D01*
X002293Y006954D02*
X002905Y006954D01*
X002860Y006795D02*
X002399Y006795D01*
X002445Y006637D02*
X002860Y006637D01*
X002880Y006478D02*
X002445Y006478D01*
X002382Y006320D02*
X003039Y006320D01*
X003829Y006478D02*
X004800Y006478D01*
X004800Y006637D02*
X003850Y006637D01*
X003850Y006795D02*
X004800Y006795D01*
X004820Y006954D02*
X003804Y006954D01*
X003646Y007112D02*
X004979Y007112D01*
X004787Y007639D02*
X004605Y007639D01*
X004605Y008078D01*
X004604Y008078D01*
X004165Y008078D01*
X004165Y007896D01*
X004422Y007639D01*
X004604Y007639D01*
X004604Y008078D01*
X004604Y008079D01*
X004165Y008079D01*
X004165Y008261D01*
X004422Y008519D01*
X004604Y008519D01*
X004604Y008079D01*
X004605Y008079D01*
X004605Y008519D01*
X004787Y008519D01*
X005045Y008261D01*
X005045Y008079D01*
X004605Y008079D01*
X004605Y008078D01*
X005045Y008078D01*
X005045Y007896D01*
X004787Y007639D01*
X004895Y007747D02*
X006039Y007747D01*
X006105Y007588D02*
X002445Y007588D01*
X002427Y007429D02*
X006172Y007429D01*
X006285Y007271D02*
X002361Y007271D01*
X002420Y007747D02*
X004314Y007747D01*
X004165Y007905D02*
X002342Y007905D01*
X002145Y008064D02*
X004165Y008064D01*
X004165Y008222D02*
X003448Y008222D01*
X003435Y008209D02*
X003725Y008499D01*
X003725Y008703D01*
X003230Y008703D01*
X003230Y008209D01*
X003435Y008209D01*
X003230Y008222D02*
X003229Y008222D01*
X003229Y008209D02*
X003229Y008703D01*
X002735Y008703D01*
X002735Y008499D01*
X003025Y008209D01*
X003229Y008209D01*
X003229Y008381D02*
X003230Y008381D01*
X003229Y008539D02*
X003230Y008539D01*
X003229Y008698D02*
X003230Y008698D01*
X003229Y008703D02*
X003230Y008703D01*
X003230Y008704D01*
X003229Y008704D01*
X003229Y008703D01*
X003229Y008704D02*
X002735Y008704D01*
X002735Y008909D01*
X003025Y009199D01*
X003229Y009199D01*
X003229Y008704D01*
X003230Y008704D02*
X003230Y009199D01*
X003435Y009199D01*
X003725Y008909D01*
X003725Y008704D01*
X003230Y008704D01*
X003229Y008856D02*
X003230Y008856D01*
X003229Y009015D02*
X003230Y009015D01*
X003229Y009173D02*
X003230Y009173D01*
X003460Y009173D02*
X005230Y009173D01*
X005230Y009015D02*
X003618Y009015D01*
X003725Y008856D02*
X005230Y008856D01*
X005230Y008698D02*
X003725Y008698D01*
X003725Y008539D02*
X005230Y008539D01*
X005266Y008381D02*
X004925Y008381D01*
X005045Y008222D02*
X005369Y008222D01*
X005691Y008064D02*
X005045Y008064D01*
X005045Y007905D02*
X005841Y007905D01*
X005980Y008204D02*
X005730Y008829D01*
X006230Y008856D02*
X006230Y008856D01*
X006230Y008698D02*
X006230Y008698D01*
X006230Y008539D02*
X006230Y008539D01*
X005980Y008204D02*
X006605Y007704D01*
X006605Y006329D01*
X015105Y006329D01*
X016480Y007704D01*
X016480Y010329D01*
X016800Y010204D02*
X017214Y010204D01*
X017398Y010280D01*
X017539Y010420D01*
X017615Y010604D01*
X017615Y010803D01*
X017539Y010987D01*
X017398Y011127D01*
X017214Y011204D01*
X017398Y011280D01*
X017539Y011420D01*
X017615Y011604D01*
X017615Y011803D01*
X017539Y011987D01*
X017398Y012127D01*
X017214Y012204D01*
X017398Y012280D01*
X017539Y012420D01*
X017615Y012604D01*
X017615Y012803D01*
X017539Y012987D01*
X017398Y013127D01*
X017214Y013204D01*
X017398Y013280D01*
X017539Y013420D01*
X017615Y013604D01*
X017615Y013803D01*
X017539Y013987D01*
X017398Y014127D01*
X017214Y014204D01*
X017398Y014280D01*
X017539Y014420D01*
X017615Y014604D01*
X017615Y014803D01*
X017539Y014987D01*
X017398Y015127D01*
X017214Y015204D01*
X017398Y015280D01*
X017539Y015420D01*
X017615Y015604D01*
X017615Y015803D01*
X017539Y015987D01*
X017398Y016127D01*
X017214Y016204D01*
X016870Y016204D01*
X016245Y016704D01*
X016312Y016704D01*
X016605Y016996D01*
X016605Y017411D01*
X016312Y017704D01*
X015971Y017704D01*
X015335Y018181D01*
X015497Y018114D01*
X015712Y018114D01*
X015911Y018196D01*
X016062Y018348D01*
X016145Y018546D01*
X016145Y019361D01*
X016062Y019559D01*
X015911Y019711D01*
X015712Y019794D01*
X015497Y019794D01*
X015299Y019711D01*
X015147Y019559D01*
X015105Y019457D01*
X015062Y019559D01*
X014911Y019711D01*
X014712Y019794D01*
X014497Y019794D01*
X014299Y019711D01*
X014147Y019559D01*
X014105Y019457D01*
X014062Y019559D01*
X013911Y019711D01*
X013712Y019794D01*
X013497Y019794D01*
X013299Y019711D01*
X013147Y019559D01*
X013105Y019457D01*
X013062Y019559D01*
X012911Y019711D01*
X012712Y019794D01*
X012497Y019794D01*
X012299Y019711D01*
X012147Y019559D01*
X012065Y019361D01*
X012065Y018546D01*
X012147Y018348D01*
X012299Y018196D01*
X012497Y018114D01*
X012712Y018114D01*
X012911Y018196D01*
X013062Y018348D01*
X013105Y018450D01*
X013147Y018348D01*
X013299Y018196D01*
X013497Y018114D01*
X013508Y018114D01*
X014757Y016954D01*
X014598Y016954D01*
X014305Y016661D01*
X014305Y016246D01*
X014598Y015954D01*
X015012Y015954D01*
X015305Y016246D01*
X015305Y016431D01*
X015337Y016405D01*
X015378Y016364D01*
X015399Y016356D01*
X016095Y015799D01*
X016095Y015604D01*
X016171Y015420D01*
X016311Y015280D01*
X016495Y015204D01*
X017214Y015204D01*
X016495Y015204D01*
X016311Y015127D01*
X016208Y015024D01*
X015418Y015024D01*
X015291Y015024D01*
X015173Y014975D01*
X015083Y014885D01*
X015035Y014767D01*
X015035Y012931D01*
X015012Y012954D01*
X014814Y012954D01*
X014799Y012962D01*
X014786Y012975D01*
X014743Y012992D01*
X014703Y013015D01*
X014685Y013017D01*
X014668Y013024D01*
X014622Y013024D01*
X014577Y013029D01*
X014559Y013024D01*
X013043Y013024D01*
X012916Y013024D01*
X012798Y012975D01*
X012548Y012725D01*
X012458Y012635D01*
X012410Y012517D01*
X012410Y012476D01*
X012306Y012372D01*
X012230Y012188D01*
X012230Y011469D01*
X012230Y012188D01*
X012154Y012372D01*
X012013Y012512D01*
X011829Y012589D01*
X011630Y012589D01*
X011446Y012512D01*
X011306Y012372D01*
X011230Y012188D01*
X011230Y011469D01*
X011306Y011285D01*
X011318Y011274D01*
X011142Y011274D01*
X011154Y011285D01*
X011230Y011469D01*
X011230Y012188D01*
X011154Y012372D01*
X011013Y012512D01*
X010935Y012545D01*
X010925Y012605D01*
X010925Y013474D01*
X011125Y013274D01*
X011585Y013274D01*
X011910Y013599D01*
X011910Y014058D01*
X011585Y014384D01*
X011125Y014384D01*
X010925Y014183D01*
X010925Y014542D01*
X010931Y014568D01*
X010925Y014605D01*
X010925Y014642D01*
X010914Y014667D01*
X010910Y014694D01*
X010890Y014725D01*
X010876Y014760D01*
X010857Y014779D01*
X010842Y014802D01*
X010812Y014823D01*
X010786Y014850D01*
X010761Y014860D01*
X010050Y015368D01*
X010050Y018210D01*
X010080Y018240D01*
X010080Y016033D01*
X010080Y015874D01*
X010141Y015727D01*
X010891Y014977D01*
X011003Y014864D01*
X011150Y014804D01*
X011883Y014804D01*
X012048Y014639D01*
X012232Y014563D01*
X012431Y014563D01*
X012615Y014639D01*
X012755Y014779D01*
X012831Y014963D01*
X012831Y015162D01*
X012755Y015346D01*
X012939Y015270D01*
X013138Y015270D01*
X013322Y015346D01*
X013462Y015486D01*
X013539Y015670D01*
X013539Y015869D01*
X013462Y016053D01*
X013646Y015977D01*
X013845Y015977D01*
X014029Y016053D01*
X014169Y016194D01*
X014246Y016377D01*
X014246Y016576D01*
X014169Y016760D01*
X013661Y017268D01*
X013477Y017344D01*
X013279Y017344D01*
X013095Y017268D01*
X012954Y017128D01*
X012878Y016944D01*
X012878Y016745D01*
X012954Y016561D01*
X013462Y016053D01*
X012954Y016561D01*
X012770Y016637D01*
X012571Y016637D01*
X012388Y016561D01*
X012247Y016421D01*
X012171Y016237D01*
X012171Y016038D01*
X012247Y015854D01*
X012063Y015930D01*
X011864Y015930D01*
X011681Y015854D01*
X011540Y015713D01*
X011494Y015604D01*
X011395Y015604D01*
X010880Y016119D01*
X010880Y017040D01*
X010881Y017039D01*
X011328Y017039D01*
X011645Y017355D01*
X011645Y017802D01*
X011328Y018119D01*
X010881Y018119D01*
X010880Y018117D01*
X010880Y019040D01*
X010881Y019039D01*
X011328Y019039D01*
X011645Y019355D01*
X011645Y019802D01*
X011477Y019970D01*
X017702Y019970D01*
X017589Y019722D01*
X017515Y019204D01*
X017589Y018685D01*
X017807Y018209D01*
X017855Y018154D01*
X017855Y017704D01*
X018320Y017704D01*
X018590Y017530D01*
X018590Y017530D01*
X019093Y017382D01*
X019617Y017382D01*
X019680Y017401D01*
X019665Y017386D01*
X019665Y017204D01*
X020104Y017204D01*
X020104Y017203D01*
X019665Y017203D01*
X019665Y017021D01*
X019922Y016764D01*
X020104Y016764D01*
X020104Y017203D01*
X020105Y017203D01*
X020105Y016764D01*
X020120Y016764D01*
X020120Y016204D01*
X019495Y016204D01*
X019311Y016127D01*
X019288Y016104D01*
X019059Y016104D01*
X018900Y016104D01*
X018753Y016043D01*
X018641Y015930D01*
X018580Y015783D01*
X018580Y010379D01*
X018572Y010351D01*
X018580Y010300D01*
X018580Y010249D01*
X018591Y010222D01*
X018595Y010193D01*
X018621Y010149D01*
X018641Y010102D01*
X018661Y010081D01*
X018676Y010056D01*
X018717Y010026D01*
X018753Y009989D01*
X018780Y009978D01*
X019217Y009651D01*
X019253Y009614D01*
X019280Y009603D01*
X019286Y009599D01*
X019130Y009599D01*
X018946Y009522D01*
X018806Y009382D01*
X018730Y009198D01*
X018730Y008479D01*
X018806Y008295D01*
X018946Y008155D01*
X019130Y008079D01*
X019329Y008079D01*
X019513Y008155D01*
X019654Y008295D01*
X019730Y008479D01*
X019730Y009198D01*
X019654Y009382D01*
X019513Y009522D01*
X019451Y009548D01*
X019457Y009546D01*
X019508Y009554D01*
X019830Y009554D01*
X019830Y003854D01*
X018752Y003854D01*
X018795Y003896D01*
X018795Y004078D01*
X018355Y004078D01*
X018355Y004079D01*
X018354Y004079D01*
X018354Y004078D01*
X017915Y004078D01*
X017915Y003896D01*
X018172Y003639D01*
X018196Y003639D01*
X017839Y003354D01*
X016861Y003354D01*
X016918Y003491D01*
X016918Y003666D01*
X016851Y003827D01*
X016800Y003878D01*
X016800Y004790D01*
X016806Y004775D01*
X016946Y004635D01*
X017130Y004559D01*
X017329Y004559D01*
X017513Y004635D01*
X017654Y004775D01*
X017730Y004959D01*
X017806Y004775D01*
X017946Y004635D01*
X018130Y004559D01*
X018329Y004559D01*
X018513Y004635D01*
X018654Y004775D01*
X018730Y004959D01*
X018730Y005678D01*
X018654Y005862D01*
X018513Y006002D01*
X018329Y006079D01*
X018130Y006079D01*
X017946Y006002D01*
X017806Y005862D01*
X017730Y005678D01*
X017730Y004959D01*
X017730Y005678D01*
X017654Y005862D01*
X017513Y006002D01*
X017329Y006079D01*
X017130Y006079D01*
X016946Y006002D01*
X016806Y005862D01*
X016800Y005847D01*
X016800Y006696D01*
X018182Y008079D01*
X018329Y008079D01*
X018513Y008155D01*
X018654Y008295D01*
X018730Y008479D01*
X018730Y009198D01*
X018654Y009382D01*
X018513Y009522D01*
X018329Y009599D01*
X018130Y009599D01*
X017946Y009522D01*
X017806Y009382D01*
X017730Y009198D01*
X017730Y008531D01*
X017730Y008531D01*
X017730Y009198D01*
X017654Y009382D01*
X017513Y009522D01*
X017329Y009599D01*
X017130Y009599D01*
X016946Y009522D01*
X016806Y009382D01*
X016800Y009367D01*
X016800Y010204D01*
X016800Y010125D02*
X018631Y010125D01*
X018580Y010283D02*
X017401Y010283D01*
X017547Y010442D02*
X018580Y010442D01*
X018580Y010600D02*
X017613Y010600D01*
X017615Y010759D02*
X018580Y010759D01*
X018580Y010917D02*
X017567Y010917D01*
X017449Y011076D02*
X018580Y011076D01*
X018580Y011234D02*
X017289Y011234D01*
X017214Y011204D02*
X016495Y011204D01*
X016425Y011233D01*
X016425Y011174D01*
X016495Y011204D01*
X017214Y011204D01*
X017511Y011393D02*
X018580Y011393D01*
X018580Y011552D02*
X017593Y011552D01*
X017615Y011710D02*
X018580Y011710D01*
X018580Y011869D02*
X017588Y011869D01*
X017498Y012027D02*
X018580Y012027D01*
X018580Y012186D02*
X017257Y012186D01*
X017214Y012204D02*
X016495Y012204D01*
X016311Y012280D01*
X016208Y012384D01*
X016175Y012384D01*
X016175Y012024D01*
X016208Y012024D01*
X016311Y012127D01*
X016495Y012204D01*
X017214Y012204D01*
X017463Y012344D02*
X018580Y012344D01*
X018580Y012503D02*
X017573Y012503D01*
X017615Y012661D02*
X018580Y012661D01*
X018580Y012820D02*
X017608Y012820D01*
X017542Y012978D02*
X018580Y012978D01*
X018580Y013137D02*
X017375Y013137D01*
X017414Y013296D02*
X018580Y013296D01*
X018580Y013454D02*
X017553Y013454D01*
X017615Y013613D02*
X018580Y013613D01*
X018580Y013771D02*
X017615Y013771D01*
X017562Y013930D02*
X018580Y013930D01*
X018580Y014088D02*
X017437Y014088D01*
X017319Y014247D02*
X018580Y014247D01*
X018580Y014405D02*
X017524Y014405D01*
X017598Y014564D02*
X018580Y014564D01*
X018580Y014722D02*
X017615Y014722D01*
X017582Y014881D02*
X018580Y014881D01*
X018580Y015040D02*
X017486Y015040D01*
X017227Y015198D02*
X018580Y015198D01*
X018580Y015357D02*
X017475Y015357D01*
X017578Y015515D02*
X018580Y015515D01*
X018580Y015674D02*
X017615Y015674D01*
X017603Y015832D02*
X018600Y015832D01*
X018701Y015991D02*
X017535Y015991D01*
X017345Y016149D02*
X019364Y016149D01*
X019903Y016784D02*
X016392Y016784D01*
X016343Y016625D02*
X020120Y016625D01*
X020120Y016466D02*
X016541Y016466D01*
X016740Y016308D02*
X020120Y016308D01*
X020104Y016784D02*
X020105Y016784D01*
X020104Y016942D02*
X020105Y016942D01*
X020104Y017101D02*
X020105Y017101D01*
X019744Y016942D02*
X016550Y016942D01*
X016605Y017101D02*
X019665Y017101D01*
X019665Y017259D02*
X016605Y017259D01*
X016598Y017418D02*
X018972Y017418D01*
X019093Y017382D02*
X019093Y017382D01*
X019617Y017382D02*
X019617Y017382D01*
X018518Y017576D02*
X016439Y017576D01*
X016105Y017204D02*
X015105Y017954D01*
X014605Y018454D01*
X014605Y018954D01*
X015096Y019479D02*
X015114Y019479D01*
X015225Y019637D02*
X014985Y019637D01*
X014225Y019637D02*
X013985Y019637D01*
X014096Y019479D02*
X014114Y019479D01*
X013225Y019637D02*
X012985Y019637D01*
X013096Y019479D02*
X013114Y019479D01*
X012225Y019637D02*
X011645Y019637D01*
X011645Y019479D02*
X012114Y019479D01*
X012065Y019320D02*
X011610Y019320D01*
X011451Y019162D02*
X012065Y019162D01*
X012065Y019003D02*
X010880Y019003D01*
X010880Y018845D02*
X012065Y018845D01*
X012065Y018686D02*
X010880Y018686D01*
X010880Y018527D02*
X012072Y018527D01*
X012138Y018369D02*
X010880Y018369D01*
X010880Y018210D02*
X012284Y018210D01*
X012925Y018210D02*
X013284Y018210D01*
X013138Y018369D02*
X013071Y018369D01*
X013574Y018052D02*
X011395Y018052D01*
X011554Y017893D02*
X013745Y017893D01*
X013916Y017735D02*
X011645Y017735D01*
X011645Y017576D02*
X014087Y017576D01*
X014257Y017418D02*
X011645Y017418D01*
X011549Y017259D02*
X013086Y017259D01*
X012943Y017101D02*
X011390Y017101D01*
X010880Y016942D02*
X012878Y016942D01*
X012878Y016784D02*
X010880Y016784D01*
X010880Y016625D02*
X012542Y016625D01*
X012800Y016625D02*
X012928Y016625D01*
X012293Y016466D02*
X010880Y016466D01*
X010880Y016308D02*
X012200Y016308D01*
X012171Y016149D02*
X010880Y016149D01*
X011008Y015991D02*
X012190Y015991D01*
X012247Y015854D02*
X012755Y015346D01*
X012247Y015854D01*
X012269Y015832D02*
X012269Y015832D01*
X012427Y015674D02*
X012427Y015674D01*
X012586Y015515D02*
X012586Y015515D01*
X012744Y015357D02*
X012745Y015357D01*
X012816Y015198D02*
X016482Y015198D01*
X016235Y015357D02*
X013333Y015357D01*
X013474Y015515D02*
X016132Y015515D01*
X016095Y015674D02*
X013539Y015674D01*
X013539Y015832D02*
X016054Y015832D01*
X015855Y015991D02*
X015049Y015991D01*
X015208Y016149D02*
X015657Y016149D01*
X015459Y016308D02*
X015305Y016308D01*
X014560Y015991D02*
X013879Y015991D01*
X013612Y015991D02*
X013488Y015991D01*
X014125Y016149D02*
X014402Y016149D01*
X014305Y016308D02*
X014217Y016308D01*
X014246Y016466D02*
X014305Y016466D01*
X014305Y016625D02*
X014225Y016625D01*
X014146Y016784D02*
X014428Y016784D01*
X014586Y016942D02*
X013987Y016942D01*
X013829Y017101D02*
X014599Y017101D01*
X014428Y017259D02*
X013670Y017259D01*
X015507Y018052D02*
X017855Y018052D01*
X017855Y017893D02*
X015718Y017893D01*
X015930Y017735D02*
X017855Y017735D01*
X017807Y018209D02*
X017807Y018209D01*
X017806Y018210D02*
X015925Y018210D01*
X016071Y018369D02*
X017734Y018369D01*
X017661Y018527D02*
X016137Y018527D01*
X016145Y018686D02*
X017589Y018686D01*
X017566Y018845D02*
X016145Y018845D01*
X016145Y019003D02*
X017544Y019003D01*
X017521Y019162D02*
X016145Y019162D01*
X016145Y019320D02*
X017532Y019320D01*
X017554Y019479D02*
X016096Y019479D01*
X015985Y019637D02*
X017577Y019637D01*
X017589Y019722D02*
X017589Y019722D01*
X017623Y019796D02*
X011645Y019796D01*
X011492Y019954D02*
X017695Y019954D01*
X016224Y015040D02*
X012831Y015040D01*
X012797Y014881D02*
X015082Y014881D01*
X015035Y014722D02*
X012698Y014722D01*
X012434Y014564D02*
X015035Y014564D01*
X015035Y014405D02*
X010925Y014405D01*
X010925Y014247D02*
X010988Y014247D01*
X010930Y014564D02*
X012229Y014564D01*
X011964Y014722D02*
X010892Y014722D01*
X010987Y014881D02*
X010732Y014881D01*
X010828Y015040D02*
X010510Y015040D01*
X010669Y015198D02*
X010288Y015198D01*
X010066Y015357D02*
X010511Y015357D01*
X010352Y015515D02*
X010050Y015515D01*
X010050Y015674D02*
X010194Y015674D01*
X010097Y015832D02*
X010050Y015832D01*
X010050Y015991D02*
X010080Y015991D01*
X010080Y016149D02*
X010050Y016149D01*
X010050Y016308D02*
X010080Y016308D01*
X010080Y016466D02*
X010050Y016466D01*
X010050Y016625D02*
X010080Y016625D01*
X010080Y016784D02*
X010050Y016784D01*
X010050Y016942D02*
X010080Y016942D01*
X010080Y017101D02*
X010050Y017101D01*
X010050Y017259D02*
X010080Y017259D01*
X010080Y017418D02*
X010050Y017418D01*
X010050Y017576D02*
X010080Y017576D01*
X010080Y017735D02*
X010050Y017735D01*
X010050Y017893D02*
X010080Y017893D01*
X010080Y018052D02*
X010050Y018052D01*
X010050Y018210D02*
X010080Y018210D01*
X009480Y017954D02*
X008730Y018704D01*
X008730Y018954D01*
X008230Y018450D02*
X008272Y018348D01*
X008424Y018196D01*
X008622Y018114D01*
X008837Y018114D01*
X008858Y018122D01*
X009160Y017821D01*
X009160Y016287D01*
X008953Y016494D01*
X008506Y016494D01*
X008190Y016177D01*
X008190Y015730D01*
X008506Y015414D01*
X008953Y015414D01*
X009160Y015620D01*
X009160Y014860D01*
X009153Y014828D01*
X009160Y014797D01*
X009160Y014765D01*
X009172Y014735D01*
X009178Y014703D01*
X009196Y014677D01*
X009208Y014647D01*
X009231Y014624D01*
X009249Y014598D01*
X009276Y014580D01*
X009298Y014557D01*
X009328Y014545D01*
X009910Y014157D01*
X009910Y013806D01*
X009838Y013877D01*
X009654Y013954D01*
X009455Y013954D01*
X009271Y013877D01*
X009131Y013737D01*
X009055Y013553D01*
X009055Y013406D01*
X008550Y012901D01*
X008550Y014267D01*
X008501Y014385D01*
X008411Y014475D01*
X008293Y014524D01*
X008166Y014524D01*
X008050Y014524D01*
X008050Y018210D01*
X008187Y018348D01*
X008230Y018450D01*
X008196Y018369D02*
X008263Y018369D01*
X008409Y018210D02*
X008050Y018210D01*
X008050Y018052D02*
X008929Y018052D01*
X009087Y017893D02*
X008050Y017893D01*
X008050Y017735D02*
X009160Y017735D01*
X009160Y017576D02*
X008050Y017576D01*
X008050Y017418D02*
X009160Y017418D01*
X009160Y017259D02*
X008050Y017259D01*
X008050Y017101D02*
X009160Y017101D01*
X009160Y016942D02*
X008050Y016942D01*
X008050Y016784D02*
X009160Y016784D01*
X009160Y016625D02*
X008050Y016625D01*
X008050Y016466D02*
X008479Y016466D01*
X008320Y016308D02*
X008050Y016308D01*
X008050Y016149D02*
X008190Y016149D01*
X008190Y015991D02*
X008050Y015991D01*
X008050Y015832D02*
X008190Y015832D01*
X008246Y015674D02*
X008050Y015674D01*
X008050Y015515D02*
X008404Y015515D01*
X008050Y015357D02*
X009160Y015357D01*
X009160Y015515D02*
X009055Y015515D01*
X009160Y015198D02*
X008050Y015198D01*
X008050Y015040D02*
X009160Y015040D01*
X009160Y014881D02*
X008050Y014881D01*
X008050Y014722D02*
X009175Y014722D01*
X009292Y014564D02*
X008050Y014564D01*
X008230Y014204D02*
X007730Y014204D01*
X007730Y018954D01*
X006730Y018954D02*
X007480Y017829D01*
X007480Y014204D01*
X006730Y014204D01*
X006730Y012579D01*
X006730Y011829D01*
X006730Y012579D02*
X006605Y012704D01*
X005230Y012704D01*
X004605Y012079D01*
X004943Y011710D02*
X005230Y011710D01*
X005230Y011552D02*
X002695Y011552D01*
X002695Y011393D02*
X005261Y011393D01*
X005357Y011234D02*
X003484Y011234D01*
X003460Y011259D02*
X003000Y011259D01*
X002675Y010933D01*
X002675Y010474D01*
X003000Y010149D01*
X003460Y010149D01*
X003785Y010474D01*
X003785Y010933D01*
X003460Y011259D01*
X003642Y011076D02*
X005410Y011076D01*
X005410Y010917D02*
X003785Y010917D01*
X003785Y010759D02*
X005412Y010759D01*
X005505Y010600D02*
X003785Y010600D01*
X003753Y010442D02*
X013069Y010442D01*
X013069Y010600D02*
X008329Y010600D01*
X008488Y010759D02*
X009972Y010759D01*
X009910Y010917D02*
X008550Y010917D01*
X008550Y011076D02*
X008612Y011076D01*
X008230Y010954D02*
X008105Y010829D01*
X005730Y010829D01*
X005730Y011829D01*
X005230Y011869D02*
X005102Y011869D01*
X005105Y012027D02*
X005230Y012027D01*
X005230Y012186D02*
X005164Y012186D01*
X004735Y012661D02*
X003380Y012661D01*
X003380Y012503D02*
X004322Y012503D01*
X004163Y012344D02*
X003367Y012344D01*
X003278Y012186D02*
X004105Y012186D01*
X004105Y012027D02*
X002492Y012027D01*
X002503Y011869D02*
X004107Y011869D01*
X004266Y011710D02*
X002633Y011710D01*
X002648Y011234D02*
X002976Y011234D01*
X002817Y011076D02*
X002541Y011076D01*
X002675Y010917D02*
X002271Y010917D01*
X001880Y010759D02*
X002675Y010759D01*
X002675Y010600D02*
X001880Y010600D01*
X001880Y010442D02*
X002707Y010442D01*
X002865Y010283D02*
X001880Y010283D01*
X001880Y010125D02*
X013129Y010125D01*
X013069Y010283D02*
X003594Y010283D01*
X003000Y009173D02*
X001880Y009173D01*
X001880Y009332D02*
X005289Y009332D01*
X005425Y009491D02*
X001880Y009491D01*
X001880Y009649D02*
X014355Y009649D01*
X014355Y009491D02*
X014035Y009491D01*
X014170Y009332D02*
X014355Y009332D01*
X014428Y009173D02*
X014230Y009173D01*
X014230Y009015D02*
X014586Y009015D01*
X014230Y008856D02*
X015035Y008856D01*
X015021Y008698D02*
X014230Y008698D01*
X014230Y008539D02*
X014863Y008539D01*
X014704Y008381D02*
X014193Y008381D01*
X014090Y008222D02*
X014546Y008222D01*
X014387Y008064D02*
X013577Y008064D01*
X013369Y008222D02*
X013090Y008222D01*
X013193Y008381D02*
X013266Y008381D01*
X013230Y008539D02*
X013230Y008539D01*
X013230Y008698D02*
X013230Y008698D01*
X013230Y008856D02*
X013230Y008856D01*
X013230Y009015D02*
X013230Y009015D01*
X013230Y009173D02*
X013230Y009173D01*
X013170Y009332D02*
X013289Y009332D01*
X013425Y009491D02*
X013035Y009491D01*
X012425Y009491D02*
X012035Y009491D01*
X012170Y009332D02*
X012289Y009332D01*
X012230Y009173D02*
X012230Y009173D01*
X012230Y009015D02*
X012230Y009015D01*
X012230Y008856D02*
X012230Y008856D01*
X012105Y008454D02*
X011730Y008829D01*
X011230Y008856D02*
X011230Y008856D01*
X011230Y009015D02*
X011230Y009015D01*
X011230Y009173D02*
X011230Y009173D01*
X011170Y009332D02*
X011289Y009332D01*
X011425Y009491D02*
X011035Y009491D01*
X010425Y009491D02*
X010035Y009491D01*
X010170Y009332D02*
X010289Y009332D01*
X010230Y009173D02*
X010230Y009173D01*
X010230Y009015D02*
X010230Y009015D01*
X010230Y008856D02*
X010230Y008856D01*
X010230Y008698D02*
X010230Y008698D01*
X010230Y008539D02*
X010230Y008539D01*
X010193Y008381D02*
X010266Y008381D01*
X010369Y008222D02*
X010090Y008222D01*
X010202Y008064D02*
X010633Y008064D01*
X010480Y007905D02*
X010355Y007905D01*
X010355Y007747D02*
X010480Y007747D01*
X010480Y007588D02*
X010355Y007588D01*
X010327Y007429D02*
X010547Y007429D01*
X010660Y007271D02*
X010397Y007271D01*
X010468Y007112D02*
X010660Y007112D01*
X010660Y006954D02*
X010538Y006954D01*
X010355Y006579D02*
X014855Y006579D01*
X016105Y007829D01*
X016105Y011704D01*
X016855Y011704D01*
X016452Y012186D02*
X016175Y012186D01*
X016175Y012344D02*
X016247Y012344D01*
X016211Y012027D02*
X016175Y012027D01*
X015855Y012704D02*
X015855Y008079D01*
X014605Y006829D01*
X010980Y006829D01*
X010980Y007704D01*
X010980Y008579D01*
X010730Y008829D01*
X009855Y007704D02*
X009730Y007704D01*
X009355Y008079D01*
X008730Y008829D01*
X008605Y007954D02*
X008548Y007956D01*
X008491Y007961D01*
X008434Y007971D01*
X008379Y007984D01*
X008324Y008000D01*
X008270Y008021D01*
X008218Y008044D01*
X008167Y008071D01*
X008119Y008101D01*
X008072Y008135D01*
X008028Y008171D01*
X007986Y008210D01*
X007947Y008252D01*
X007911Y008296D01*
X007877Y008343D01*
X007847Y008392D01*
X007820Y008442D01*
X007797Y008494D01*
X007776Y008548D01*
X007760Y008603D01*
X007747Y008658D01*
X007737Y008715D01*
X007732Y008772D01*
X007730Y008829D01*
X007480Y007954D02*
X007426Y007956D01*
X007373Y007962D01*
X007321Y007971D01*
X007269Y007984D01*
X007218Y008001D01*
X007168Y008022D01*
X007121Y008046D01*
X007075Y008073D01*
X007031Y008104D01*
X006989Y008137D01*
X006950Y008174D01*
X006913Y008213D01*
X006880Y008255D01*
X006849Y008299D01*
X006822Y008345D01*
X006798Y008392D01*
X006777Y008442D01*
X006760Y008493D01*
X006747Y008545D01*
X006738Y008597D01*
X006732Y008650D01*
X006730Y008704D01*
X006730Y008829D01*
X006230Y009015D02*
X006230Y009015D01*
X006230Y009173D02*
X006230Y009173D01*
X006170Y009332D02*
X006289Y009332D01*
X006425Y009491D02*
X006035Y009491D01*
X007035Y009491D02*
X007425Y009491D01*
X007289Y009332D02*
X007170Y009332D01*
X007230Y009173D02*
X007230Y009173D01*
X007230Y009015D02*
X007230Y009015D01*
X007230Y008856D02*
X007230Y008856D01*
X007230Y008698D02*
X007230Y008698D01*
X007230Y008539D02*
X007230Y008539D01*
X007201Y008381D02*
X007266Y008381D01*
X007480Y007954D02*
X007482Y007924D01*
X007487Y007894D01*
X007496Y007865D01*
X007509Y007838D01*
X007524Y007812D01*
X007543Y007788D01*
X007564Y007767D01*
X007588Y007748D01*
X007614Y007733D01*
X007641Y007720D01*
X007670Y007711D01*
X007700Y007706D01*
X007730Y007704D01*
X007730Y007829D01*
X008230Y008539D02*
X008230Y008539D01*
X008230Y008698D02*
X008230Y008698D01*
X008230Y008856D02*
X008230Y008856D01*
X008230Y009015D02*
X008230Y009015D01*
X008230Y009173D02*
X008230Y009173D01*
X008170Y009332D02*
X008289Y009332D01*
X008425Y009491D02*
X008035Y009491D01*
X009035Y009491D02*
X009425Y009491D01*
X009289Y009332D02*
X009170Y009332D01*
X009230Y009173D02*
X009230Y009173D01*
X009230Y009015D02*
X009230Y009015D01*
X009230Y008856D02*
X009230Y008856D01*
X008605Y007954D02*
X008605Y007829D01*
X008730Y007829D02*
X008730Y007704D01*
X008710Y007706D01*
X008691Y007710D01*
X008673Y007718D01*
X008657Y007728D01*
X008642Y007741D01*
X008629Y007756D01*
X008619Y007772D01*
X008611Y007790D01*
X008607Y007809D01*
X008605Y007829D01*
X009855Y007704D02*
X010355Y006579D01*
X009606Y006003D02*
X016160Y006003D01*
X016160Y006161D02*
X015390Y006161D01*
X015548Y006320D02*
X016160Y006320D01*
X016160Y006478D02*
X015707Y006478D01*
X015865Y006637D02*
X016160Y006637D01*
X016160Y006795D02*
X016024Y006795D01*
X016183Y006954D02*
X016185Y006954D01*
X016480Y006829D02*
X016480Y003579D01*
X016800Y003941D02*
X017915Y003941D01*
X017915Y004079D02*
X018354Y004079D01*
X018354Y004519D01*
X018172Y004519D01*
X017915Y004261D01*
X017915Y004079D01*
X017915Y004100D02*
X016800Y004100D01*
X016800Y004259D02*
X017915Y004259D01*
X018071Y004417D02*
X016800Y004417D01*
X016800Y004576D02*
X017089Y004576D01*
X017371Y004576D02*
X018089Y004576D01*
X017847Y004734D02*
X017612Y004734D01*
X017702Y004893D02*
X017757Y004893D01*
X017730Y005051D02*
X017730Y005051D01*
X017730Y005210D02*
X017730Y005210D01*
X017730Y005368D02*
X017730Y005368D01*
X017730Y005527D02*
X017730Y005527D01*
X017727Y005685D02*
X017733Y005685D01*
X017799Y005844D02*
X017661Y005844D01*
X017513Y006003D02*
X017947Y006003D01*
X018513Y006003D02*
X019111Y006003D01*
X019127Y006008D02*
X019061Y005986D01*
X018999Y005955D01*
X018943Y005914D01*
X018894Y005865D01*
X018853Y005809D01*
X018822Y005747D01*
X018801Y005682D01*
X018790Y005613D01*
X018790Y005579D01*
X019229Y005579D01*
X019229Y005578D01*
X018790Y005578D01*
X018790Y005024D01*
X018801Y004955D01*
X018822Y004890D01*
X018853Y004828D01*
X018894Y004772D01*
X018943Y004723D01*
X018999Y004682D01*
X019061Y004651D01*
X019127Y004629D01*
X019195Y004619D01*
X019229Y004619D01*
X019229Y005578D01*
X019230Y005578D01*
X019230Y004619D01*
X019264Y004619D01*
X019333Y004629D01*
X019399Y004651D01*
X019460Y004682D01*
X019516Y004723D01*
X019565Y004772D01*
X019606Y004828D01*
X019637Y004890D01*
X019659Y004955D01*
X019670Y005024D01*
X019670Y005578D01*
X019230Y005578D01*
X019230Y005579D01*
X019229Y005579D01*
X019229Y006019D01*
X019195Y006019D01*
X019127Y006008D01*
X019229Y006003D02*
X019230Y006003D01*
X019230Y006019D02*
X019230Y005579D01*
X019670Y005579D01*
X019670Y005613D01*
X019659Y005682D01*
X019637Y005747D01*
X019606Y005809D01*
X019565Y005865D01*
X019516Y005914D01*
X019460Y005955D01*
X019399Y005986D01*
X019333Y006008D01*
X019264Y006019D01*
X019230Y006019D01*
X019349Y006003D02*
X019830Y006003D01*
X019830Y006161D02*
X016800Y006161D01*
X016800Y006003D02*
X016947Y006003D01*
X016800Y006320D02*
X019830Y006320D01*
X019830Y006478D02*
X016800Y006478D01*
X016800Y006637D02*
X019830Y006637D01*
X019830Y006795D02*
X016899Y006795D01*
X017058Y006954D02*
X019830Y006954D01*
X019830Y007112D02*
X017216Y007112D01*
X017375Y007271D02*
X019830Y007271D01*
X019830Y007429D02*
X017533Y007429D01*
X017692Y007588D02*
X019830Y007588D01*
X019830Y007747D02*
X017850Y007747D01*
X018009Y007905D02*
X019830Y007905D01*
X019830Y008064D02*
X018167Y008064D01*
X018580Y008222D02*
X018879Y008222D01*
X018770Y008381D02*
X018689Y008381D01*
X018730Y008539D02*
X018730Y008539D01*
X018730Y008698D02*
X018730Y008698D01*
X018730Y008856D02*
X018730Y008856D01*
X018730Y009015D02*
X018730Y009015D01*
X018730Y009173D02*
X018730Y009173D01*
X018674Y009332D02*
X018785Y009332D01*
X018915Y009491D02*
X018545Y009491D01*
X018796Y009966D02*
X016800Y009966D01*
X016800Y009808D02*
X019008Y009808D01*
X019219Y009649D02*
X016800Y009649D01*
X016800Y009491D02*
X016915Y009491D01*
X017545Y009491D02*
X017915Y009491D01*
X017785Y009332D02*
X017674Y009332D01*
X017730Y009173D02*
X017730Y009173D01*
X017730Y009015D02*
X017730Y009015D01*
X017730Y008856D02*
X017730Y008856D01*
X017730Y008698D02*
X017730Y008698D01*
X017730Y008539D02*
X017730Y008539D01*
X018230Y008579D02*
X016480Y006829D01*
X015605Y008329D02*
X014355Y007079D01*
X012105Y007079D01*
X012105Y007704D01*
X012105Y008454D01*
X013230Y007704D02*
X014480Y007704D01*
X015355Y008579D01*
X015355Y011829D01*
X013730Y011829D01*
X013230Y011869D02*
X013230Y011869D01*
X013230Y012027D02*
X013230Y012027D01*
X013230Y012186D02*
X013230Y012186D01*
X013230Y012188D02*
X013230Y011469D01*
X013230Y012188D01*
X013306Y012372D01*
X013318Y012384D01*
X013142Y012384D01*
X013154Y012372D01*
X013230Y012188D01*
X013294Y012344D02*
X013165Y012344D01*
X012980Y012704D02*
X012730Y012454D01*
X012730Y011829D01*
X012230Y011869D02*
X012230Y011869D01*
X012230Y012027D02*
X012230Y012027D01*
X012230Y012186D02*
X012230Y012186D01*
X012165Y012344D02*
X012294Y012344D01*
X012410Y012503D02*
X012022Y012503D01*
X012485Y012661D02*
X010925Y012661D01*
X010925Y012820D02*
X012644Y012820D01*
X012807Y012978D02*
X010925Y012978D01*
X010925Y013137D02*
X015035Y013137D01*
X015035Y012978D02*
X014777Y012978D01*
X015035Y013296D02*
X013607Y013296D01*
X013585Y013274D02*
X013910Y013599D01*
X013910Y014058D01*
X013585Y014384D01*
X013125Y014384D01*
X012800Y014058D01*
X012800Y013599D01*
X013125Y013274D01*
X013585Y013274D01*
X013765Y013454D02*
X015035Y013454D01*
X015035Y013613D02*
X013910Y013613D01*
X013910Y013771D02*
X015035Y013771D01*
X015035Y013930D02*
X013910Y013930D01*
X013880Y014088D02*
X015035Y014088D01*
X015035Y014247D02*
X013721Y014247D01*
X012988Y014247D02*
X011721Y014247D01*
X011880Y014088D02*
X012830Y014088D01*
X012800Y013930D02*
X011910Y013930D01*
X011910Y013771D02*
X012800Y013771D01*
X012800Y013613D02*
X011910Y013613D01*
X011765Y013454D02*
X012944Y013454D01*
X013103Y013296D02*
X011607Y013296D01*
X011103Y013296D02*
X010925Y013296D01*
X010925Y013454D02*
X010944Y013454D01*
X010605Y012579D02*
X010605Y014579D01*
X009730Y015204D01*
X009730Y018954D01*
X009480Y017954D02*
X009480Y014829D01*
X010230Y014329D01*
X010230Y010954D01*
X011605Y010954D01*
X011730Y011079D01*
X011730Y011829D01*
X011230Y011869D02*
X011230Y011869D01*
X011230Y012027D02*
X011230Y012027D01*
X011230Y012186D02*
X011230Y012186D01*
X011165Y012344D02*
X011294Y012344D01*
X011437Y012503D02*
X011022Y012503D01*
X010605Y012579D02*
X010730Y011829D01*
X011230Y011710D02*
X011230Y011710D01*
X011230Y011552D02*
X011230Y011552D01*
X011261Y011393D02*
X011198Y011393D01*
X011863Y010759D02*
X013069Y010759D01*
X013069Y010917D02*
X012009Y010917D01*
X012050Y011076D02*
X012612Y011076D01*
X012847Y011076D02*
X013172Y011076D01*
X013103Y011234D02*
X013357Y011234D01*
X013261Y011393D02*
X013198Y011393D01*
X013230Y011552D02*
X013230Y011552D01*
X013230Y011710D02*
X013230Y011710D01*
X012357Y011234D02*
X012103Y011234D01*
X012198Y011393D02*
X012261Y011393D01*
X012230Y011552D02*
X012230Y011552D01*
X012230Y011710D02*
X012230Y011710D01*
X012980Y012704D02*
X014605Y012704D01*
X014805Y012454D01*
X015355Y011829D02*
X015355Y014704D01*
X016855Y014704D01*
X017214Y014204D02*
X016495Y014204D01*
X016311Y014280D01*
X016208Y014384D01*
X015675Y014384D01*
X015675Y014024D01*
X016208Y014024D01*
X016311Y014127D01*
X016495Y014204D01*
X017214Y014204D01*
X016855Y013704D02*
X015605Y013704D01*
X015605Y008329D01*
X014502Y009808D02*
X001880Y009808D01*
X001880Y009966D02*
X015035Y009966D01*
X016480Y010329D02*
X016482Y010366D01*
X016487Y010402D01*
X016496Y010438D01*
X016509Y010473D01*
X016524Y010506D01*
X016543Y010537D01*
X016565Y010567D01*
X016590Y010594D01*
X016617Y010619D01*
X016647Y010641D01*
X016678Y010660D01*
X016711Y010675D01*
X016746Y010688D01*
X016782Y010697D01*
X016818Y010702D01*
X016855Y010704D01*
X016855Y012704D02*
X015855Y012704D01*
X015925Y013024D02*
X015925Y013384D01*
X016208Y013384D01*
X016311Y013280D01*
X016495Y013204D01*
X017214Y013204D01*
X016495Y013204D01*
X016311Y013127D01*
X016208Y013024D01*
X015925Y013024D01*
X015925Y013137D02*
X016335Y013137D01*
X016296Y013296D02*
X015925Y013296D01*
X015675Y014088D02*
X016272Y014088D01*
X016391Y014247D02*
X015675Y014247D01*
X011659Y015832D02*
X011167Y015832D01*
X011325Y015674D02*
X011523Y015674D01*
X009910Y014088D02*
X008550Y014088D01*
X008550Y013930D02*
X009398Y013930D01*
X009165Y013771D02*
X008550Y013771D01*
X008550Y013613D02*
X009079Y013613D01*
X009055Y013454D02*
X008550Y013454D01*
X008550Y013296D02*
X008944Y013296D01*
X008786Y013137D02*
X008550Y013137D01*
X008550Y012978D02*
X008627Y012978D01*
X008730Y012629D02*
X009555Y013454D01*
X009712Y013930D02*
X009910Y013930D01*
X009775Y014247D02*
X008550Y014247D01*
X008480Y014405D02*
X009538Y014405D01*
X008230Y014204D02*
X008230Y010954D01*
X008847Y011076D02*
X009910Y011076D01*
X009730Y011234D02*
X009729Y011234D01*
X009729Y011393D02*
X009730Y011393D01*
X009729Y011552D02*
X009730Y011552D01*
X009729Y011710D02*
X009730Y011710D01*
X009729Y011829D02*
X009290Y011829D01*
X009290Y012123D01*
X009301Y012192D01*
X009322Y012257D01*
X009353Y012319D01*
X009394Y012375D01*
X009443Y012424D01*
X009499Y012465D01*
X009561Y012496D01*
X009627Y012518D01*
X009695Y012529D01*
X009729Y012529D01*
X009729Y011829D01*
X009729Y011869D02*
X009730Y011869D01*
X009729Y012027D02*
X009730Y012027D01*
X009729Y012186D02*
X009730Y012186D01*
X009729Y012344D02*
X009730Y012344D01*
X009729Y012503D02*
X009730Y012503D01*
X009878Y012503D02*
X009910Y012503D01*
X009910Y012661D02*
X009215Y012661D01*
X009057Y012503D02*
X009581Y012503D01*
X009372Y012344D02*
X009165Y012344D01*
X009230Y012186D02*
X009300Y012186D01*
X009290Y012027D02*
X009230Y012027D01*
X009230Y011869D02*
X009290Y011869D01*
X009290Y011710D02*
X009230Y011710D01*
X009230Y011552D02*
X009290Y011552D01*
X009325Y011393D02*
X009198Y011393D01*
X009103Y011234D02*
X009441Y011234D01*
X008730Y011829D02*
X008730Y012629D01*
X009374Y012820D02*
X009910Y012820D01*
X009910Y012978D02*
X009714Y012978D01*
X007730Y013379D02*
X007730Y011829D01*
X006410Y013137D02*
X006285Y013137D01*
X006285Y013296D02*
X006410Y013296D01*
X006410Y013454D02*
X006285Y013454D01*
X006230Y013613D02*
X006410Y013613D01*
X006410Y013771D02*
X006072Y013771D01*
X006410Y013930D02*
X003380Y013930D01*
X003380Y014088D02*
X006410Y014088D01*
X006410Y014247D02*
X003380Y014247D01*
X003380Y014405D02*
X006479Y014405D01*
X006054Y014722D02*
X007160Y014722D01*
X007160Y014564D02*
X005932Y014564D01*
X006105Y014881D02*
X007160Y014881D01*
X007160Y015040D02*
X006105Y015040D01*
X006105Y015198D02*
X007160Y015198D01*
X007160Y015357D02*
X006105Y015357D01*
X006105Y015515D02*
X006404Y015515D01*
X006246Y015674D02*
X006059Y015674D01*
X006005Y015832D02*
X006190Y015832D01*
X006190Y015991D02*
X006005Y015991D01*
X006005Y016149D02*
X006190Y016149D01*
X006320Y016308D02*
X006005Y016308D01*
X006005Y016466D02*
X006330Y016466D01*
X006330Y016625D02*
X005967Y016625D01*
X006027Y016784D02*
X006330Y016784D01*
X006293Y016942D02*
X006167Y016942D01*
X006230Y017094D02*
X006230Y017813D01*
X006306Y017997D01*
X006446Y018137D01*
X006506Y018162D01*
X006424Y018196D01*
X006272Y018348D01*
X006195Y018533D01*
X006175Y018469D01*
X006140Y018402D01*
X006096Y018341D01*
X006042Y018287D01*
X005981Y018243D01*
X005914Y018209D01*
X005873Y018195D01*
X006013Y018137D01*
X006154Y017997D01*
X006230Y017813D01*
X006230Y017094D01*
X006230Y017101D02*
X006230Y017101D01*
X006230Y017259D02*
X006230Y017259D01*
X006230Y017418D02*
X006230Y017418D01*
X006230Y017576D02*
X006230Y017576D01*
X006230Y017735D02*
X006230Y017735D01*
X006196Y017893D02*
X006263Y017893D01*
X006361Y018052D02*
X006098Y018052D01*
X005917Y018210D02*
X006409Y018210D01*
X006263Y018369D02*
X006116Y018369D01*
X006193Y018527D02*
X006197Y018527D01*
X005750Y018527D02*
X005710Y018527D01*
X005710Y018369D02*
X005750Y018369D01*
X005750Y018214D02*
X005710Y018214D01*
X005710Y018933D01*
X005750Y018933D01*
X005750Y018214D01*
X005750Y018686D02*
X005710Y018686D01*
X005710Y018845D02*
X005750Y018845D01*
X005205Y016054D02*
X004218Y016054D01*
X004078Y015914D01*
X003825Y015914D01*
X003888Y015887D01*
X004029Y015747D01*
X004105Y015563D01*
X004181Y015747D01*
X004321Y015887D01*
X004505Y015964D01*
X004704Y015964D01*
X004888Y015887D01*
X005029Y015747D01*
X005105Y015563D01*
X005105Y014844D01*
X005105Y015563D01*
X005181Y015747D01*
X005205Y015771D01*
X005205Y016054D01*
X005205Y015991D02*
X004156Y015991D01*
X004266Y015832D02*
X003943Y015832D01*
X004059Y015674D02*
X004151Y015674D01*
X004105Y015563D02*
X004105Y014844D01*
X004105Y015563D01*
X004105Y015515D02*
X004105Y015515D01*
X004105Y015357D02*
X004105Y015357D01*
X004105Y015198D02*
X004105Y015198D01*
X004105Y015040D02*
X004105Y015040D01*
X004105Y014881D02*
X004105Y014881D01*
X004054Y014722D02*
X004155Y014722D01*
X004277Y014564D02*
X003932Y014564D01*
X004072Y013771D02*
X005388Y013771D01*
X005229Y013613D02*
X004230Y013613D01*
X004285Y013454D02*
X005175Y013454D01*
X005175Y013296D02*
X004285Y013296D01*
X004285Y013137D02*
X005175Y013137D01*
X005057Y012978D02*
X004164Y012978D01*
X004006Y012820D02*
X004894Y012820D01*
X003453Y012820D02*
X003380Y012820D01*
X003380Y013771D02*
X003388Y013771D01*
X004932Y014564D02*
X005277Y014564D01*
X005155Y014722D02*
X005054Y014722D01*
X005105Y014881D02*
X005105Y014881D01*
X005105Y015040D02*
X005105Y015040D01*
X005105Y015198D02*
X005105Y015198D01*
X005105Y015357D02*
X005105Y015357D01*
X005105Y015515D02*
X005105Y015515D01*
X005059Y015674D02*
X005151Y015674D01*
X005205Y015832D02*
X004943Y015832D01*
X007055Y015515D02*
X007160Y015515D01*
X008980Y016466D02*
X009160Y016466D01*
X009160Y016308D02*
X009139Y016308D01*
X007655Y013454D02*
X007730Y013379D01*
X004605Y008381D02*
X004604Y008381D01*
X004604Y008222D02*
X004605Y008222D01*
X004604Y008064D02*
X004605Y008064D01*
X004604Y007905D02*
X004605Y007905D01*
X004604Y007747D02*
X004605Y007747D01*
X004285Y008381D02*
X003607Y008381D01*
X003011Y008222D02*
X002312Y008222D01*
X002407Y008381D02*
X002853Y008381D01*
X002735Y008539D02*
X002445Y008539D01*
X002440Y008698D02*
X002735Y008698D01*
X002735Y008856D02*
X002374Y008856D01*
X002232Y009015D02*
X002841Y009015D01*
X001197Y006039D02*
X001085Y006085D01*
X001085Y003374D01*
X001090Y003377D01*
X001090Y003377D01*
X001415Y003472D01*
X001415Y003578D01*
X001854Y003578D01*
X001854Y003579D01*
X001415Y003579D01*
X001415Y003761D01*
X001672Y004019D01*
X001854Y004019D01*
X001854Y003579D01*
X001855Y003579D01*
X001855Y004019D01*
X002037Y004019D01*
X002205Y003851D01*
X002205Y004221D01*
X002062Y004079D01*
X001648Y004079D01*
X001355Y004371D01*
X001355Y004786D01*
X001648Y005079D01*
X002062Y005079D01*
X001648Y005079D01*
X001355Y005371D01*
X001355Y005786D01*
X001455Y005886D01*
X001455Y006039D01*
X001197Y006039D01*
X001085Y006003D02*
X001455Y006003D01*
X001413Y005844D02*
X001085Y005844D01*
X001085Y005685D02*
X001355Y005685D01*
X001355Y005527D02*
X001085Y005527D01*
X001085Y005368D02*
X001358Y005368D01*
X001516Y005210D02*
X001085Y005210D01*
X001085Y005051D02*
X001620Y005051D01*
X001462Y004893D02*
X001085Y004893D01*
X001085Y004734D02*
X001355Y004734D01*
X001355Y004576D02*
X001085Y004576D01*
X001085Y004417D02*
X001355Y004417D01*
X001468Y004259D02*
X001085Y004259D01*
X001085Y004100D02*
X001626Y004100D01*
X001595Y003941D02*
X001085Y003941D01*
X001085Y003783D02*
X001437Y003783D01*
X001415Y003624D02*
X001085Y003624D01*
X001085Y003466D02*
X001392Y003466D01*
X001854Y003624D02*
X001855Y003624D01*
X001854Y003783D02*
X001855Y003783D01*
X001854Y003941D02*
X001855Y003941D01*
X002083Y004100D02*
X002205Y004100D01*
X002205Y003941D02*
X002114Y003941D01*
X002205Y004936D02*
X002062Y005079D01*
X002162Y005179D01*
X002205Y005179D01*
X002205Y004936D01*
X002205Y005051D02*
X002089Y005051D01*
X004450Y003149D02*
X006128Y003149D01*
X006080Y002990D02*
X004490Y002990D01*
X004480Y002832D02*
X006080Y002832D01*
X006080Y002673D02*
X004415Y002673D01*
X004237Y002515D02*
X006080Y002515D01*
X006080Y002356D02*
X003559Y002356D01*
X003620Y002222D02*
X003620Y002222D01*
X003624Y002198D02*
X004160Y002198D01*
X004014Y002039D02*
X003646Y002039D01*
X003669Y001880D02*
X003948Y001880D01*
X003940Y001722D02*
X003692Y001722D01*
X003695Y001704D02*
X003695Y001704D01*
X003674Y001563D02*
X003940Y001563D01*
X003940Y001405D02*
X003652Y001405D01*
X003629Y001246D02*
X003940Y001246D01*
X003940Y001088D02*
X003576Y001088D01*
X004799Y002198D02*
X005160Y002198D01*
X005013Y002039D02*
X004946Y002039D01*
X005799Y002198D02*
X006080Y002198D01*
X006013Y002039D02*
X005946Y002039D01*
X006989Y003466D02*
X007260Y003466D01*
X007230Y003624D02*
X007045Y003624D01*
X007045Y003704D02*
X007045Y003886D01*
X006787Y004144D01*
X006605Y004144D01*
X006605Y003704D01*
X007045Y003704D01*
X007045Y003783D02*
X007230Y003783D01*
X007261Y003941D02*
X006989Y003941D01*
X006830Y004100D02*
X007419Y004100D01*
X008040Y004100D02*
X008419Y004100D01*
X008261Y003941D02*
X008199Y003941D01*
X008230Y003783D02*
X008230Y003783D01*
X008230Y003624D02*
X008230Y003624D01*
X008230Y003496D02*
X008158Y003425D01*
X008273Y003377D01*
X008297Y003354D01*
X008373Y003354D01*
X008230Y003496D01*
X008260Y003466D02*
X008199Y003466D01*
X009040Y004100D02*
X009629Y004100D01*
X009672Y004144D02*
X009415Y003886D01*
X009415Y003704D01*
X009854Y003704D01*
X009854Y004144D01*
X009672Y004144D01*
X009855Y004144D02*
X009855Y003704D01*
X010295Y003704D01*
X010295Y003886D01*
X010037Y004144D01*
X009855Y004144D01*
X009854Y004100D02*
X009855Y004100D01*
X009854Y003941D02*
X009855Y003941D01*
X009854Y003783D02*
X009855Y003783D01*
X010080Y004100D02*
X010754Y004100D01*
X010797Y004144D02*
X010540Y003886D01*
X010540Y003704D01*
X010979Y003704D01*
X010979Y004144D01*
X010797Y004144D01*
X010980Y004144D02*
X010980Y003704D01*
X011420Y003704D01*
X011420Y003886D01*
X011162Y004144D01*
X010980Y004144D01*
X010979Y004100D02*
X010980Y004100D01*
X010979Y003941D02*
X010980Y003941D01*
X010979Y003783D02*
X010980Y003783D01*
X011205Y004100D02*
X011879Y004100D01*
X011922Y004144D02*
X011665Y003886D01*
X011665Y003704D01*
X012104Y003704D01*
X012104Y004144D01*
X011922Y004144D01*
X012105Y004144D02*
X012105Y003704D01*
X012545Y003704D01*
X012545Y003886D01*
X012287Y004144D01*
X012105Y004144D01*
X012104Y004100D02*
X012105Y004100D01*
X012104Y003941D02*
X012105Y003941D01*
X012104Y003783D02*
X012105Y003783D01*
X012330Y004100D02*
X013004Y004100D01*
X013047Y004144D02*
X012790Y003886D01*
X012790Y003704D01*
X013229Y003704D01*
X013229Y004144D01*
X013047Y004144D01*
X013230Y004144D02*
X013230Y003704D01*
X013670Y003704D01*
X013670Y003886D01*
X013412Y004144D01*
X013230Y004144D01*
X013229Y004100D02*
X013230Y004100D01*
X013229Y003941D02*
X013230Y003941D01*
X013229Y003783D02*
X013230Y003783D01*
X013455Y004100D02*
X013855Y004100D01*
X013855Y003941D02*
X013614Y003941D01*
X013670Y003783D02*
X013943Y003783D01*
X014102Y003624D02*
X013670Y003624D01*
X012845Y003466D02*
X012489Y003466D01*
X012545Y003624D02*
X012790Y003624D01*
X012790Y003783D02*
X012545Y003783D01*
X012489Y003941D02*
X012845Y003941D01*
X011720Y003941D02*
X011364Y003941D01*
X011420Y003783D02*
X011665Y003783D01*
X011665Y003624D02*
X011420Y003624D01*
X011364Y003466D02*
X011720Y003466D01*
X010595Y003466D02*
X010239Y003466D01*
X010295Y003624D02*
X010540Y003624D01*
X010540Y003783D02*
X010295Y003783D01*
X010239Y003941D02*
X010595Y003941D01*
X009470Y003941D02*
X009199Y003941D01*
X009230Y003783D02*
X009415Y003783D01*
X009415Y003624D02*
X009230Y003624D01*
X009199Y003466D02*
X009470Y003466D01*
X008742Y005051D02*
X006717Y005051D01*
X006604Y004100D02*
X006605Y004100D01*
X006604Y003941D02*
X006605Y003941D01*
X006604Y003783D02*
X006605Y003783D01*
X006328Y006161D02*
X005597Y006161D01*
X005756Y006320D02*
X006285Y006320D01*
X006285Y006478D02*
X005910Y006478D01*
X005910Y006637D02*
X006285Y006637D01*
X006285Y006795D02*
X005910Y006795D01*
X005889Y006954D02*
X006285Y006954D01*
X006285Y007112D02*
X005731Y007112D01*
X016800Y004734D02*
X016847Y004734D01*
X016869Y003783D02*
X018028Y003783D01*
X018178Y003624D02*
X016918Y003624D01*
X016907Y003466D02*
X017980Y003466D01*
X018355Y004079D02*
X018795Y004079D01*
X018795Y004261D01*
X018537Y004519D01*
X018355Y004519D01*
X018355Y004079D01*
X018354Y004100D02*
X018355Y004100D01*
X018354Y004259D02*
X018355Y004259D01*
X018354Y004417D02*
X018355Y004417D01*
X018371Y004576D02*
X019830Y004576D01*
X019830Y004734D02*
X019528Y004734D01*
X019638Y004893D02*
X019830Y004893D01*
X019830Y005051D02*
X019670Y005051D01*
X019670Y005210D02*
X019830Y005210D01*
X019830Y005368D02*
X019670Y005368D01*
X019670Y005527D02*
X019830Y005527D01*
X019830Y005685D02*
X019658Y005685D01*
X019581Y005844D02*
X019830Y005844D01*
X019230Y005844D02*
X019229Y005844D01*
X019229Y005685D02*
X019230Y005685D01*
X019229Y005527D02*
X019230Y005527D01*
X019229Y005368D02*
X019230Y005368D01*
X019229Y005210D02*
X019230Y005210D01*
X019229Y005051D02*
X019230Y005051D01*
X019229Y004893D02*
X019230Y004893D01*
X019229Y004734D02*
X019230Y004734D01*
X018932Y004734D02*
X018612Y004734D01*
X018702Y004893D02*
X018821Y004893D01*
X018790Y005051D02*
X018730Y005051D01*
X018730Y005210D02*
X018790Y005210D01*
X018790Y005368D02*
X018730Y005368D01*
X018730Y005527D02*
X018790Y005527D01*
X018802Y005685D02*
X018727Y005685D01*
X018661Y005844D02*
X018879Y005844D01*
X018638Y004417D02*
X019830Y004417D01*
X019830Y004259D02*
X018795Y004259D01*
X018795Y004100D02*
X019830Y004100D01*
X019830Y003941D02*
X018795Y003941D01*
X019580Y008222D02*
X019830Y008222D01*
X019830Y008381D02*
X019689Y008381D01*
X019730Y008539D02*
X019830Y008539D01*
X019830Y008698D02*
X019730Y008698D01*
X019730Y008856D02*
X019830Y008856D01*
X019830Y009015D02*
X019730Y009015D01*
X019730Y009173D02*
X019830Y009173D01*
X019830Y009332D02*
X019674Y009332D01*
X019545Y009491D02*
X019830Y009491D01*
D18*
X016480Y003579D03*
D19*
X017980Y002954D02*
X007730Y002954D01*
X006480Y002954D01*
X006480Y001454D01*
X007480Y001454D02*
X007480Y002329D01*
X010355Y002329D01*
X010355Y001454D01*
X003730Y002954D02*
X002605Y003454D01*
X002605Y005579D01*
X001855Y005579D01*
X001855Y006579D01*
X001605Y006579D01*
X001480Y008704D02*
X001480Y011454D01*
X001855Y011454D01*
X001855Y012454D02*
X002980Y012454D01*
X002980Y014579D01*
X003605Y015204D01*
X003855Y016454D02*
X003980Y016536D01*
X003980Y016454D01*
X005605Y016454D01*
X005605Y015204D01*
X006730Y015954D02*
X006730Y017454D01*
X006021Y018272D02*
X005980Y018329D01*
X005730Y018579D01*
X005730Y018954D01*
X004355Y019829D02*
X010480Y019829D01*
X010480Y015954D01*
X011230Y015204D01*
X012230Y015204D01*
X012148Y015246D01*
X013730Y018454D02*
X015480Y016829D01*
X015605Y016704D01*
X016855Y015704D01*
X018980Y015704D02*
X018980Y010329D01*
X019480Y009954D01*
X020230Y009954D01*
X020230Y003454D01*
X018605Y003454D01*
X017980Y002954D01*
X018980Y015704D02*
X019855Y015704D01*
X013730Y018454D02*
X013605Y018954D01*
X004355Y019829D02*
X002855Y017454D01*
X001105Y017454D01*
X001105Y014454D01*
X001855Y014454D01*
D20*
X006355Y005579D03*
X009105Y005579D03*
X013605Y010579D03*
X014855Y010579D03*
D21*
X013605Y010579D01*
X009105Y005579D02*
X006355Y005579D01*
D22*
X015730Y004204D03*
X017105Y004204D03*
X017105Y006329D03*
X015980Y006329D03*
X015605Y015829D03*
X016855Y016579D03*
X011105Y016704D03*
X008730Y016954D03*
D23*
X001855Y015454D03*
M02*
