G75*
G70*
%OFA0B0*%
%FSLAX24Y24*%
%IPPOS*%
%LPD*%
%AMOC8*
5,1,8,0,0,1.08239X$1,22.5*
%
%ADD10C,0.0060*%
%ADD11C,0.0050*%
%ADD12C,0.0040*%
D10*
X009210Y009770D02*
X009316Y009770D01*
X009210Y009770D02*
X009103Y009877D01*
X009103Y010411D01*
X008885Y010411D02*
X008565Y010411D01*
X008458Y010304D01*
X008458Y009984D01*
X008134Y010090D02*
X008027Y009984D01*
X008134Y010090D02*
X008134Y010517D01*
X008241Y010411D02*
X008027Y010411D01*
X007811Y010304D02*
X007704Y010411D01*
X007491Y010411D01*
X007384Y010304D01*
X007384Y009984D01*
X007811Y009984D02*
X007811Y010624D01*
X008885Y010411D02*
X008885Y009984D01*
X009103Y009984D02*
X009423Y009984D01*
X009530Y010090D01*
X009530Y010411D01*
X009747Y010517D02*
X009854Y010624D01*
X010068Y010624D01*
X010174Y010517D01*
X010174Y010411D01*
X010068Y010304D01*
X009854Y010304D01*
X009747Y010197D01*
X009747Y010090D01*
X009854Y009984D01*
X010068Y009984D01*
X010174Y010090D01*
X010391Y010411D02*
X010498Y010411D01*
X010711Y010197D01*
X010711Y009984D02*
X010711Y010411D01*
X010929Y010304D02*
X010929Y010090D01*
X011036Y009984D01*
X011249Y009984D01*
X011356Y010090D01*
X011356Y010304D01*
X011249Y010411D01*
X011036Y010411D01*
X010929Y010304D01*
X011572Y009984D02*
X011786Y009984D01*
X011679Y009984D02*
X011679Y010624D01*
X011786Y010624D01*
X012003Y010304D02*
X012110Y010411D01*
X012323Y010411D01*
X012430Y010304D01*
X012430Y010090D01*
X012323Y009984D01*
X012110Y009984D01*
X012003Y010090D01*
X012003Y010304D01*
X012648Y010517D02*
X012754Y010624D01*
X012968Y010624D01*
X013075Y010517D01*
X013075Y010090D01*
X012968Y009984D01*
X012754Y009984D01*
X012648Y010090D01*
X006522Y009984D02*
X006522Y010624D01*
X006202Y010624D01*
X006095Y010517D01*
X006095Y010304D01*
X006202Y010197D01*
X006522Y010197D01*
X005878Y010090D02*
X005771Y009984D01*
X005557Y009984D01*
X005451Y010090D01*
X005233Y009984D02*
X004913Y009984D01*
X004806Y010090D01*
X004806Y010197D01*
X004913Y010304D01*
X005233Y010304D01*
X005451Y010517D02*
X005557Y010624D01*
X005771Y010624D01*
X005878Y010517D01*
X005878Y010090D01*
X005233Y009984D02*
X005233Y010624D01*
X004913Y010624D01*
X004806Y010517D01*
X004806Y010411D01*
X004913Y010304D01*
X003944Y010411D02*
X003730Y009984D01*
X003517Y010411D01*
X003299Y010517D02*
X003193Y010624D01*
X002979Y010624D01*
X002872Y010517D01*
X002872Y010411D01*
X003299Y009984D01*
X002872Y009984D01*
X002655Y009984D02*
X002655Y010090D01*
X002548Y010090D01*
X002548Y009984D01*
X002655Y009984D01*
X002333Y010090D02*
X001906Y010517D01*
X001906Y010090D01*
X002012Y009984D01*
X002226Y009984D01*
X002333Y010090D01*
X002333Y010517D01*
X002226Y010624D01*
X002012Y010624D01*
X001906Y010517D01*
D11*
X003116Y006354D02*
X003523Y006354D01*
X003723Y006354D02*
X004130Y006354D01*
X003927Y006354D02*
X003927Y006964D01*
X004130Y006761D01*
X004331Y006862D02*
X004738Y006455D01*
X004636Y006354D01*
X004433Y006354D01*
X004331Y006455D01*
X004331Y006862D01*
X004433Y006964D01*
X004636Y006964D01*
X004738Y006862D01*
X004738Y006455D01*
X004939Y006354D02*
X005346Y006354D01*
X004939Y006761D01*
X004939Y006862D01*
X005041Y006964D01*
X005244Y006964D01*
X005346Y006862D01*
X006154Y006659D02*
X006154Y006354D01*
X006154Y006659D02*
X006256Y006761D01*
X006561Y006761D01*
X006561Y006354D01*
X006762Y006354D02*
X006762Y006659D01*
X006864Y006761D01*
X007067Y006761D01*
X007067Y006557D02*
X006762Y006557D01*
X006762Y006354D02*
X007067Y006354D01*
X007169Y006455D01*
X007067Y006557D01*
X007370Y006659D02*
X007370Y006354D01*
X007573Y006354D02*
X007573Y006659D01*
X007472Y006761D01*
X007370Y006659D01*
X007573Y006659D02*
X007675Y006761D01*
X007777Y006761D01*
X007777Y006354D01*
X007977Y006557D02*
X008384Y006557D01*
X008384Y006455D02*
X008384Y006659D01*
X008283Y006761D01*
X008079Y006761D01*
X007977Y006659D01*
X007977Y006557D01*
X008079Y006354D02*
X008283Y006354D01*
X008384Y006455D01*
X008586Y006354D02*
X008688Y006455D01*
X008688Y006862D01*
X008790Y006761D02*
X008586Y006761D01*
X008990Y006659D02*
X008990Y006354D01*
X009296Y006354D01*
X009397Y006455D01*
X009296Y006557D01*
X008990Y006557D01*
X008990Y006659D02*
X009092Y006761D01*
X009296Y006761D01*
X009598Y006761D02*
X009700Y006659D01*
X010005Y006659D01*
X010005Y006354D02*
X010005Y006964D01*
X009700Y006964D01*
X009598Y006862D01*
X009598Y006761D01*
X009700Y006659D02*
X009598Y006557D01*
X009598Y006455D01*
X009700Y006354D01*
X010005Y006354D01*
X010813Y006354D02*
X011119Y006354D01*
X011220Y006455D01*
X011220Y006659D01*
X011119Y006761D01*
X010813Y006761D01*
X011524Y006761D02*
X011524Y006354D01*
X011626Y006354D02*
X011422Y006354D01*
X011524Y006761D02*
X011626Y006761D01*
X011827Y006761D02*
X011929Y006761D01*
X012132Y006557D01*
X012132Y006354D02*
X012132Y006761D01*
X012333Y006964D02*
X012740Y006964D01*
X012740Y006354D01*
X012333Y006354D01*
X012536Y006659D02*
X012740Y006659D01*
X013548Y006761D02*
X013548Y006252D01*
X013650Y006150D01*
X013752Y006150D01*
X013853Y006354D02*
X013548Y006354D01*
X013853Y006354D02*
X013955Y006455D01*
X013955Y006761D01*
X014156Y006659D02*
X014258Y006761D01*
X014563Y006761D01*
X014563Y006964D02*
X014563Y006354D01*
X014258Y006354D01*
X014156Y006455D01*
X014156Y006659D01*
X015371Y006761D02*
X015677Y006761D01*
X015778Y006659D01*
X015778Y006455D01*
X015677Y006354D01*
X015371Y006354D01*
X015371Y006964D01*
X015979Y006659D02*
X015979Y006557D01*
X016386Y006557D01*
X016386Y006455D02*
X016386Y006659D01*
X016284Y006761D01*
X016081Y006761D01*
X015979Y006659D01*
X016081Y006354D02*
X016284Y006354D01*
X016386Y006455D01*
X016587Y006354D02*
X016587Y006659D01*
X016689Y006761D01*
X016994Y006761D01*
X016994Y006354D01*
X017194Y006354D02*
X017500Y006354D01*
X017601Y006455D01*
X017601Y006659D01*
X017500Y006761D01*
X017194Y006761D01*
X017194Y006252D01*
X017296Y006150D01*
X017398Y006150D01*
X017803Y006354D02*
X018007Y006354D01*
X017905Y006354D02*
X017905Y006761D01*
X018007Y006761D01*
X018207Y006761D02*
X018513Y006761D01*
X018614Y006659D01*
X018513Y006557D01*
X018309Y006557D01*
X018207Y006455D01*
X018309Y006354D01*
X018614Y006354D01*
X018815Y006557D02*
X019222Y006557D01*
X019222Y006455D02*
X019222Y006659D01*
X019120Y006761D01*
X018917Y006761D01*
X018815Y006659D01*
X018815Y006557D01*
X018917Y006354D02*
X019120Y006354D01*
X019222Y006455D01*
X019423Y006455D02*
X019423Y006862D01*
X019524Y006964D01*
X019830Y006964D01*
X019830Y006354D01*
X019524Y006354D01*
X019423Y006455D01*
X017905Y006964D02*
X017905Y007066D01*
X011524Y007066D02*
X011524Y006964D01*
X003523Y006761D02*
X003319Y006964D01*
X003319Y006354D01*
D12*
X008421Y003079D02*
X008421Y002849D01*
X008574Y002849D02*
X008574Y003079D01*
X008498Y003155D01*
X008421Y003079D01*
X008574Y003079D02*
X008651Y003155D01*
X008728Y003155D01*
X008728Y002849D01*
X008881Y002925D02*
X008881Y003079D01*
X008958Y003155D01*
X009111Y003155D01*
X009188Y003079D01*
X009188Y002925D01*
X009111Y002849D01*
X008958Y002849D01*
X008881Y002925D01*
X009342Y002849D02*
X009572Y002849D01*
X009648Y002925D01*
X009648Y003079D01*
X009572Y003155D01*
X009342Y003155D01*
X009802Y002925D02*
X009802Y002849D01*
X009879Y002849D01*
X009879Y002925D01*
X009802Y002925D01*
X010032Y002849D02*
X010032Y003079D01*
X010109Y003155D01*
X010262Y003155D01*
X010339Y003079D01*
X010492Y003155D02*
X010646Y003155D01*
X010569Y003232D02*
X010569Y002925D01*
X010492Y002849D01*
X010339Y002849D02*
X010339Y003309D01*
X010799Y003079D02*
X010799Y002849D01*
X010799Y003079D02*
X010876Y003155D01*
X011106Y003155D01*
X011106Y002849D01*
X011260Y002849D02*
X011490Y002849D01*
X011567Y002925D01*
X011567Y003155D01*
X011720Y003155D02*
X011950Y003155D01*
X012027Y003079D01*
X011950Y003002D01*
X011797Y003002D01*
X011720Y002925D01*
X011797Y002849D01*
X012027Y002849D01*
X012257Y003155D02*
X012411Y003002D01*
X012411Y002849D02*
X012411Y003155D01*
X012257Y003155D02*
X012180Y003155D01*
X012564Y003079D02*
X012564Y002925D01*
X012641Y002849D01*
X012794Y002849D01*
X012871Y002925D01*
X012871Y003079D01*
X012794Y003155D01*
X012641Y003155D01*
X012564Y003079D01*
X013024Y002849D02*
X013178Y002849D01*
X013101Y002849D02*
X013101Y003309D01*
X013178Y003309D01*
X013331Y003079D02*
X013408Y003155D01*
X013561Y003155D01*
X013638Y003079D01*
X013638Y002925D01*
X013561Y002849D01*
X013408Y002849D01*
X013331Y002925D01*
X013331Y003079D01*
X013792Y003155D02*
X014022Y003155D01*
X014099Y003079D01*
X014099Y002925D01*
X014022Y002849D01*
X013792Y002849D01*
X014252Y002849D02*
X014329Y002849D01*
X014329Y002925D01*
X014252Y002925D01*
X014252Y002849D01*
X014482Y002925D02*
X014482Y003155D01*
X014482Y002925D02*
X014559Y002849D01*
X014636Y002925D01*
X014712Y002849D01*
X014789Y002925D01*
X014789Y003155D01*
X014942Y003155D02*
X014942Y002925D01*
X015019Y002849D01*
X015096Y002925D01*
X015173Y002849D01*
X015249Y002925D01*
X015249Y003155D01*
X015403Y003155D02*
X015403Y002925D01*
X015480Y002849D01*
X015556Y002925D01*
X015633Y002849D01*
X015710Y002925D01*
X015710Y003155D01*
X011413Y002695D02*
X011336Y002695D01*
X011260Y002772D01*
X011260Y003155D01*
X017846Y008351D02*
X018307Y008351D01*
X018307Y008581D01*
X018230Y008658D01*
X018076Y008658D01*
X018000Y008581D01*
X018000Y008351D01*
X018153Y008198D02*
X018153Y007891D01*
X018076Y007891D02*
X018230Y007891D01*
X018307Y007967D01*
X018307Y008121D01*
X018230Y008198D01*
X018153Y008198D01*
X018000Y008121D02*
X018000Y007967D01*
X018076Y007891D01*
X018307Y007737D02*
X018307Y007660D01*
X018153Y007507D01*
X018000Y007507D02*
X018307Y007507D01*
X018750Y007950D02*
X019210Y007950D01*
X018750Y008257D01*
X019210Y008257D01*
X018980Y008410D02*
X018826Y008410D01*
X018750Y008487D01*
X018750Y008641D01*
X018826Y008717D01*
X018980Y008717D01*
X019057Y008641D01*
X019057Y008487D01*
X018980Y008410D01*
X019057Y008871D02*
X018750Y008871D01*
X019057Y008871D02*
X019057Y009101D01*
X018980Y009178D01*
X018750Y009178D01*
X018980Y009331D02*
X018980Y009638D01*
X019210Y009792D02*
X019210Y009868D01*
X018750Y009868D01*
X018750Y009792D02*
X018750Y009945D01*
X018750Y010098D02*
X018750Y010252D01*
X018750Y010175D02*
X019057Y010175D01*
X019057Y010098D01*
X019210Y010175D02*
X019287Y010175D01*
X019057Y010482D02*
X018980Y010405D01*
X018826Y010405D01*
X018750Y010482D01*
X018750Y010712D01*
X018826Y010866D02*
X018980Y010866D01*
X019057Y010942D01*
X019057Y011096D01*
X018980Y011173D01*
X018903Y011173D01*
X018903Y010866D01*
X018826Y010866D02*
X018750Y010942D01*
X018750Y011096D01*
X018750Y011326D02*
X019057Y011326D01*
X019057Y011556D01*
X018980Y011633D01*
X018750Y011633D01*
X018750Y011786D02*
X018750Y012017D01*
X018826Y012093D01*
X018903Y012017D01*
X018903Y011863D01*
X018980Y011786D01*
X019057Y011863D01*
X019057Y012093D01*
X018980Y012247D02*
X018826Y012247D01*
X018750Y012323D01*
X018750Y012477D01*
X018903Y012554D02*
X018903Y012247D01*
X018980Y012247D02*
X019057Y012323D01*
X019057Y012477D01*
X018980Y012554D01*
X018903Y012554D01*
X018826Y012707D02*
X018980Y012707D01*
X019057Y012784D01*
X019057Y013014D01*
X019210Y013014D02*
X018750Y013014D01*
X018750Y012784D01*
X018826Y012707D01*
X018307Y013031D02*
X018307Y013261D01*
X018230Y013338D01*
X018076Y013338D01*
X018000Y013261D01*
X018000Y013031D01*
X017846Y013031D02*
X018307Y013031D01*
X018307Y013492D02*
X018000Y013492D01*
X018153Y013492D02*
X018307Y013645D01*
X018307Y013722D01*
X018230Y013875D02*
X018076Y013875D01*
X018000Y013952D01*
X018000Y014105D01*
X018076Y014182D01*
X018230Y014182D01*
X018307Y014105D01*
X018307Y013952D01*
X018230Y013875D01*
X018230Y014336D02*
X018307Y014412D01*
X018307Y014566D01*
X018230Y014642D01*
X018000Y014642D01*
X018000Y014796D02*
X018000Y014949D01*
X018000Y014873D02*
X018307Y014873D01*
X018307Y014796D01*
X018460Y014873D02*
X018537Y014873D01*
X018750Y014855D02*
X018980Y014855D01*
X019057Y014779D01*
X018980Y014702D01*
X018750Y014702D01*
X018750Y014549D02*
X019057Y014549D01*
X019057Y014625D01*
X018980Y014702D01*
X019057Y015009D02*
X018750Y015009D01*
X018750Y015162D02*
X018980Y015162D01*
X019057Y015239D01*
X018980Y015316D01*
X018750Y015316D01*
X018826Y015469D02*
X018980Y015469D01*
X019057Y015546D01*
X019057Y015699D01*
X018980Y015776D01*
X018903Y015776D01*
X018903Y015469D01*
X018826Y015469D02*
X018750Y015546D01*
X018750Y015699D01*
X018537Y015640D02*
X018460Y015640D01*
X018307Y015640D02*
X018000Y015640D01*
X018000Y015563D02*
X018000Y015717D01*
X018076Y015947D02*
X018000Y016024D01*
X018076Y015947D02*
X018383Y015947D01*
X018307Y015870D02*
X018307Y016024D01*
X018230Y016177D02*
X018076Y016177D01*
X018000Y016254D01*
X018000Y016407D01*
X018153Y016484D02*
X018153Y016177D01*
X018230Y016177D02*
X018307Y016254D01*
X018307Y016407D01*
X018230Y016484D01*
X018153Y016484D01*
X018076Y016637D02*
X018230Y016637D01*
X018307Y016714D01*
X018307Y016944D01*
X018460Y016944D02*
X018000Y016944D01*
X018000Y016714D01*
X018076Y016637D01*
X018750Y016620D02*
X018750Y016390D01*
X018826Y016313D01*
X018980Y016313D01*
X019057Y016390D01*
X019057Y016620D01*
X019057Y016774D02*
X019057Y016850D01*
X018750Y016850D01*
X018750Y016774D02*
X018750Y016927D01*
X018826Y017080D02*
X018903Y017157D01*
X018903Y017387D01*
X018980Y017387D02*
X018750Y017387D01*
X018750Y017157D01*
X018826Y017080D01*
X019057Y017157D02*
X019057Y017311D01*
X018980Y017387D01*
X019210Y017541D02*
X019210Y017617D01*
X018750Y017617D01*
X018750Y017541D02*
X018750Y017694D01*
X019210Y016850D02*
X019287Y016850D01*
X019057Y016160D02*
X019057Y016083D01*
X018903Y015930D01*
X018750Y015930D02*
X019057Y015930D01*
X018980Y015162D02*
X019057Y015086D01*
X019057Y015009D01*
X018460Y015103D02*
X018000Y015103D01*
X018000Y015333D01*
X018076Y015410D01*
X018230Y015410D01*
X018307Y015333D01*
X018307Y015103D01*
X018307Y015563D02*
X018307Y015640D01*
X018460Y014336D02*
X018000Y014336D01*
X018750Y014318D02*
X018750Y014165D01*
X018826Y014088D01*
X018980Y014088D01*
X019057Y014165D01*
X019057Y014318D01*
X018980Y014395D01*
X018826Y014395D01*
X018750Y014318D01*
X018750Y013935D02*
X018750Y013704D01*
X018826Y013628D01*
X018980Y013628D01*
X019057Y013704D01*
X019057Y013935D01*
X018230Y012417D02*
X018000Y012417D01*
X018230Y012417D02*
X018307Y012341D01*
X018307Y012111D01*
X018000Y012111D01*
X018076Y011957D02*
X018230Y011957D01*
X018307Y011880D01*
X018307Y011727D01*
X018230Y011650D01*
X018076Y011650D01*
X018000Y011727D01*
X018000Y011880D01*
X018076Y011957D01*
X018000Y011497D02*
X018000Y011343D01*
X018000Y011420D02*
X018307Y011420D01*
X018307Y011343D01*
X018307Y011190D02*
X018307Y011036D01*
X018383Y011113D02*
X018076Y011113D01*
X018000Y011190D01*
X018000Y010883D02*
X018000Y010653D01*
X018076Y010576D01*
X018230Y010576D01*
X018307Y010653D01*
X018307Y010883D01*
X018460Y011420D02*
X018537Y011420D01*
X019057Y010712D02*
X019057Y010482D01*
X018460Y009962D02*
X018000Y009962D01*
X018000Y009732D01*
X018076Y009655D01*
X018230Y009655D01*
X018307Y009732D01*
X018307Y009962D01*
X018307Y010116D02*
X018076Y010116D01*
X018000Y010192D01*
X018000Y010423D01*
X018307Y010423D01*
X018230Y009502D02*
X018076Y009502D01*
X018000Y009425D01*
X018000Y009272D01*
X018076Y009195D01*
X018230Y009195D01*
X018307Y009272D01*
X018307Y009425D01*
X018230Y009502D01*
X018307Y009042D02*
X018307Y008965D01*
X018153Y008811D01*
X018000Y008811D02*
X018307Y008811D01*
M02*
